<?xml version="1.0" standalone="no"?>
<!DOCTYPE svg PUBLIC "-//W3C//DTD SVG 20010904//EN"
 "http://www.w3.org/TR/2001/REC-SVG-20010904/DTD/svg10.dtd">
<svg version="1.0" xmlns="http://www.w3.org/2000/svg"
 width="1024.000000pt" height="1024.000000pt" viewBox="0 0 1024.000000 1024.000000"
 preserveAspectRatio="xMidYMid meet">
<metadata>
Created by potrace 1.14, written by Peter Selinger 2001-2017
</metadata>
<g transform="translate(0.000000,1024.000000) scale(0.100000,-0.100000)"
fill="#000000" stroke="none">
<path d="M4276 9762 c-3 -5 1 -9 9 -9 8 0 12 4 9 9 -3 4 -7 8 -9 8 -2 0 -6 -4
-9 -8z"/>
<path d="M4994 9743 c5 -10 -10 -13 -66 -14 -40 -1 -81 0 -92 1 -13 1 -16 -2
-10 -12 6 -10 4 -10 -9 1 -14 11 -17 11 -17 0 0 -11 -3 -11 -11 1 -8 11 -12
12 -16 3 -2 -7 -9 -13 -14 -13 -6 0 -8 4 -5 8 3 5 -1 9 -9 9 -8 0 -11 -5 -8
-10 4 -6 -16 -8 -51 -5 -46 4 -56 2 -56 -11 0 -14 -2 -14 -10 -1 -9 13 -11 13
-20 0 -6 -10 -10 -11 -10 -2 0 6 -5 12 -11 12 -5 0 -7 -5 -3 -12 5 -7 3 -8 -6
-3 -22 14 -79 14 -74 1 2 -6 -4 -12 -15 -12 -11 0 -17 5 -13 11 3 5 -6 2 -21
-7 -14 -10 -29 -18 -32 -18 -3 0 -5 8 -5 18 0 14 -2 15 -9 2 -6 -8 -7 -18 -4
-23 3 -5 -4 -4 -16 3 -12 6 -18 16 -15 22 4 7 3 8 -5 4 -6 -4 -8 -12 -5 -18 5
-8 1 -9 -11 -4 -14 5 -15 4 -7 -6 8 -10 4 -13 -17 -12 -15 0 -33 4 -39 8 -6 3
-14 1 -19 -7 -4 -7 -20 -13 -35 -14 -71 -2 -74 -3 -58 -14 13 -9 13 -10 -2 -5
-9 2 -31 1 -47 -4 -20 -5 -31 -5 -31 1 0 6 -5 7 -10 4 -6 -4 -8 -10 -6 -14 3
-4 -5 -8 -17 -8 -17 -2 -19 0 -7 7 8 5 10 10 4 10 -5 0 -19 -6 -29 -14 -13
-10 -25 -11 -37 -5 -12 7 -21 4 -31 -11 -12 -18 -18 -19 -42 -10 -24 9 -26 9
-16 -4 10 -12 8 -13 -10 -9 -15 4 -20 3 -15 -6 9 -14 -16 -11 -26 4 -5 6 -8 5
-8 -4 0 -7 -6 -11 -15 -7 -8 3 -14 0 -12 -6 1 -6 -4 -13 -12 -16 -8 -2 -11 0
-7 6 10 16 -19 8 -38 -11 -13 -12 -22 -14 -35 -8 -13 7 -22 5 -35 -10 -10 -12
-24 -18 -33 -15 -10 4 -14 2 -10 -8 4 -10 1 -13 -8 -9 -8 3 -12 10 -9 17 3 6
0 4 -8 -4 -7 -8 -22 -17 -33 -18 -11 -2 -25 -8 -32 -14 -7 -5 -16 -7 -22 -4
-5 4 -16 -1 -24 -9 -9 -8 -30 -15 -47 -15 -18 0 -29 -4 -25 -10 5 -8 -31 -15
-57 -11 -5 0 -7 -5 -5 -12 1 -7 -7 -11 -21 -11 -16 1 -22 -3 -18 -13 3 -8 2
-11 -3 -8 -5 3 -12 1 -16 -5 -3 -5 -12 -10 -18 -10 -7 0 -6 4 3 10 12 8 11 9
-7 7 -25 -3 -55 -26 -48 -36 2 -4 -2 -8 -9 -8 -9 0 -12 7 -8 15 4 11 -1 10
-15 -4 -11 -10 -19 -22 -17 -25 2 -3 -12 -5 -31 -4 -26 0 -31 -2 -24 -12 8 -9
5 -11 -11 -8 -16 3 -20 0 -16 -10 3 -8 2 -14 -2 -14 -29 5 -52 -2 -46 -13 5
-8 0 -7 -11 2 -11 9 -16 10 -11 3 7 -12 -5 -18 -28 -14 -5 1 -4 -4 2 -12 10
-12 7 -14 -18 -11 -16 2 -29 0 -27 -4 1 -4 0 -7 -3 -7 -3 0 -16 -10 -30 -22
-13 -13 -26 -21 -29 -18 -2 3 4 12 15 21 18 14 18 15 -3 4 -13 -6 -23 -18 -24
-28 0 -10 -3 -12 -6 -4 -2 6 -9 12 -14 12 -6 0 -8 -4 -5 -9 7 -10 -6 -22 -57
-50 -21 -12 -42 -19 -48 -16 -5 4 -9 1 -9 -5 0 -6 -5 -8 -12 -4 -7 5 -9 2 -5
-8 4 -12 1 -14 -13 -11 -12 3 -22 -3 -29 -16 -7 -12 -19 -21 -27 -21 -9 0 -12
-5 -8 -12 5 -8 0 -7 -11 2 -10 8 -16 10 -12 4 4 -6 -2 -19 -13 -29 -11 -10
-20 -14 -20 -9 0 5 -5 2 -10 -6 -7 -11 -10 -11 -10 -2 0 7 -5 10 -10 7 -6 -4
-7 -11 -4 -17 5 -8 1 -9 -10 -5 -12 5 -19 0 -26 -16 -5 -12 -9 -16 -9 -7 -1 9
-18 -3 -43 -30 -23 -24 -38 -35 -34 -25 7 19 7 19 -12 0 -11 -11 -17 -24 -14
-30 3 -5 -2 -4 -11 4 -15 12 -17 12 -10 -4 5 -15 3 -17 -11 -12 -10 4 -15 3
-11 -3 3 -6 -1 -10 -10 -10 -9 0 -13 -4 -10 -10 3 -5 -3 -10 -15 -10 -12 0
-19 -4 -16 -8 2 -4 -4 -14 -16 -21 -15 -9 -18 -10 -13 0 5 8 4 10 -3 5 -7 -4
-12 -14 -12 -23 0 -9 -6 -13 -15 -9 -11 4 -15 -1 -15 -17 0 -18 -2 -19 -10 -7
-9 14 -15 7 -11 -14 1 -5 -5 -6 -14 -2 -9 3 -14 2 -11 -3 3 -5 -2 -15 -11 -22
-14 -12 -16 -12 -9 1 5 8 -3 4 -16 -10 -14 -14 -23 -29 -20 -35 3 -5 -1 -4
-10 3 -13 11 -16 10 -14 -5 1 -12 -7 -19 -23 -21 -19 -3 -21 -6 -10 -13 11 -7
9 -9 -8 -9 -14 0 -23 -6 -23 -16 0 -8 -4 -12 -10 -9 -9 6 -14 -7 -11 -27 0 -4
-7 -4 -16 -1 -11 4 -14 3 -9 -5 5 -8 0 -12 -13 -12 -19 0 -26 -10 -22 -32 0
-5 -6 -8 -15 -8 -8 0 -12 -4 -9 -10 3 -5 2 -10 -4 -10 -5 0 -12 6 -14 13 -3 6
-6 2 -6 -10 -1 -13 -5 -23 -11 -23 -5 0 -10 -8 -11 -17 0 -15 -2 -15 -9 2 -8
19 -9 19 -9 -3 -1 -13 -5 -20 -11 -17 -5 3 -10 1 -10 -5 0 -6 -4 -8 -10 -5 -5
3 -10 -3 -10 -14 0 -12 -5 -21 -11 -21 -5 0 -7 6 -3 13 4 7 3 9 -2 4 -5 -5
-10 -13 -10 -18 -1 -5 -2 -13 -3 -18 0 -5 -11 -11 -22 -14 -14 -4 -20 -11 -16
-21 4 -9 3 -15 -1 -15 -19 3 -33 -2 -28 -10 3 -5 -1 -12 -10 -15 -8 -3 -12
-11 -8 -17 4 -8 3 -9 -4 -5 -7 4 -12 1 -12 -10 0 -14 -2 -15 -16 -3 -15 12
-16 11 -9 -10 5 -16 4 -21 -4 -17 -6 4 -11 0 -11 -8 0 -9 -8 -16 -17 -16 -9 0
-14 -3 -10 -6 3 -4 -1 -13 -9 -21 -8 -8 -11 -19 -8 -25 4 -7 2 -8 -5 -4 -6 4
-8 12 -5 18 4 7 2 8 -5 4 -6 -4 -9 -11 -6 -15 2 -5 -7 -21 -20 -37 -14 -16
-25 -32 -25 -36 0 -5 -5 -7 -12 -5 -7 1 -12 -3 -13 -10 0 -7 -6 -18 -14 -25
-12 -11 -13 -10 -6 2 8 13 7 13 -9 0 -17 -13 -17 -14 0 -20 17 -6 17 -7 0 -13
-10 -4 -22 -4 -27 -1 -5 3 -9 2 -8 -3 1 -4 1 -17 0 -28 -1 -17 -3 -18 -11 -5
-8 13 -10 12 -10 -3 0 -12 -4 -16 -12 -11 -8 5 -7 0 2 -11 9 -11 10 -16 3 -11
-9 4 -13 1 -13 -9 0 -11 -5 -15 -14 -12 -10 4 -12 0 -9 -14 3 -11 0 -19 -6
-19 -7 0 -9 5 -5 12 4 7 3 8 -5 4 -9 -6 -9 -11 0 -22 7 -9 8 -14 3 -13 -23 4
-33 -3 -29 -20 3 -19 -19 -37 -39 -32 -5 1 -4 -5 4 -13 12 -16 5 -21 -22 -17
-12 2 -9 -14 5 -28 10 -10 8 -11 -6 -5 -13 5 -20 1 -24 -15 -3 -11 -9 -21 -14
-21 -5 0 -9 -10 -9 -22 0 -19 -2 -20 -10 -8 -8 12 -10 9 -10 -11 0 -15 -7 -29
-15 -33 -8 -3 -14 -11 -13 -18 2 -7 -2 -12 -8 -11 -6 1 -10 -9 -8 -23 1 -14 0
-23 -3 -20 -3 3 -14 1 -25 -5 -16 -9 -17 -13 -6 -27 7 -9 8 -13 3 -10 -6 4
-17 -7 -24 -23 -7 -16 -16 -27 -20 -25 -4 3 -8 -5 -8 -17 -1 -12 -7 -23 -13
-25 -5 -2 -10 -10 -10 -18 0 -8 -6 -17 -14 -20 -8 -3 -12 -12 -10 -19 3 -7 0
-16 -7 -21 -8 -5 -10 -3 -4 6 5 9 4 11 -4 6 -6 -4 -8 -12 -5 -18 4 -6 0 -14
-7 -19 -10 -6 -11 -9 -1 -9 6 0 12 -4 12 -10 0 -5 -6 -7 -14 -4 -8 3 -17 0
-22 -7 -5 -8 -3 -10 5 -4 8 4 7 -2 -3 -17 -9 -14 -13 -28 -9 -33 5 -4 -1 -5
-11 -1 -17 6 -17 5 -5 -11 9 -11 10 -14 2 -9 -12 6 -19 -18 -14 -47 1 -5 -3
-6 -9 -2 -5 3 -10 1 -10 -5 0 -6 -5 -8 -11 -4 -7 4 -6 -2 2 -17 11 -21 10 -22
-2 -12 -13 10 -15 8 -13 -17 1 -21 -2 -27 -12 -23 -11 4 -14 -1 -10 -20 3 -20
1 -24 -11 -20 -12 5 -14 1 -9 -15 4 -11 2 -23 -4 -27 -6 -3 -7 -11 -4 -17 4
-6 3 -9 -2 -6 -5 3 -16 -1 -24 -10 -13 -14 -12 -15 4 -9 15 6 17 5 8 -6 -7 -8
-8 -18 -4 -22 4 -5 1 -5 -5 -1 -9 5 -13 -1 -13 -21 0 -22 -2 -25 -10 -13 -8
13 -10 12 -10 -4 0 -11 -8 -29 -18 -40 -14 -17 -14 -19 0 -8 12 10 18 10 24 1
4 -8 3 -9 -5 -5 -7 5 -13 -4 -18 -24 -4 -23 -8 -28 -15 -18 -6 9 -8 5 -6 -12
2 -14 -4 -31 -12 -38 -8 -8 -10 -11 -4 -8 6 3 11 -1 11 -8 0 -8 -6 -12 -12 -9
-9 3 -11 -4 -8 -21 3 -16 1 -26 -6 -26 -6 0 -11 -9 -11 -21 0 -11 -4 -18 -9
-14 -5 3 -12 1 -15 -4 -4 -5 -1 -13 5 -17 8 -5 9 -3 4 6 -6 9 -4 11 5 5 11 -7
10 -10 -1 -19 -8 -6 -14 -18 -14 -26 0 -8 -5 -26 -12 -39 -6 -14 -9 -29 -6
-34 3 -6 1 -7 -4 -4 -6 4 -14 0 -17 -9 -4 -10 -2 -13 7 -7 6 4 4 -6 -7 -21
-11 -17 -13 -25 -5 -20 11 6 10 4 0 -10 -8 -10 -16 -34 -17 -54 -1 -28 -6 -37
-18 -36 -16 2 -16 0 1 -19 10 -11 13 -18 7 -14 -6 4 -15 -8 -22 -28 -7 -26 -7
-34 1 -29 7 3 3 -2 -7 -10 -12 -9 -14 -16 -7 -16 9 0 8 -5 -3 -16 -9 -8 -16
-21 -16 -27 0 -7 4 -6 10 3 7 12 9 10 7 -7 0 -12 -5 -19 -9 -17 -4 3 -8 -4 -8
-16 0 -13 -4 -19 -12 -14 -7 5 -8 3 -2 -7 15 -25 12 -59 -5 -59 -9 0 -12 -3
-6 -8 13 -9 18 -35 6 -27 -6 3 -10 -5 -9 -17 1 -37 -1 -50 -10 -44 -5 3 -9 -1
-9 -9 0 -8 5 -12 10 -8 5 3 5 -2 -1 -13 -5 -11 -7 -25 -4 -33 3 -9 0 -11 -8
-6 -9 6 -11 4 -5 -6 5 -7 10 -24 11 -37 3 -23 2 -23 -11 -6 -10 14 -13 15 -12
4 2 -8 6 -21 10 -27 5 -8 3 -13 -5 -13 -9 0 -9 -3 2 -10 13 -9 13 -10 0 -10
-13 0 -13 -1 0 -10 11 -7 11 -10 2 -10 -7 0 -12 -6 -11 -12 3 -29 -2 -59 -9
-54 -5 3 -9 -2 -9 -10 0 -8 6 -13 13 -10 8 3 10 -2 6 -16 -4 -15 -7 -17 -13
-6 -6 9 -9 6 -9 -10 0 -15 4 -21 13 -17 6 4 3 -1 -7 -9 -11 -9 -14 -16 -8 -16
19 0 14 -20 -5 -21 -15 0 -15 -2 2 -9 l20 -9 -20 -1 c-11 -1 -14 -4 -7 -7 6
-2 12 -18 12 -34 0 -17 -4 -28 -8 -25 -5 3 -9 -1 -9 -9 0 -8 4 -12 9 -9 4 3 8
1 8 -5 0 -5 -6 -12 -12 -15 -10 -5 -10 -7 0 -12 6 -3 12 -10 12 -15 0 -6 -4
-7 -10 -4 -5 3 -10 -3 -10 -14 0 -10 6 -22 13 -24 9 -4 9 -6 0 -6 -7 -1 -13
-14 -13 -29 0 -15 -6 -34 -12 -41 -7 -7 -8 -12 -3 -11 24 5 27 -1 10 -20 -13
-14 -14 -19 -4 -15 11 4 14 -5 12 -47 -1 -29 -2 -75 -2 -103 -1 -27 -1 -68 -2
-90 -1 -22 -1 -44 -1 -50 0 -5 1 -52 2 -103 1 -63 5 -90 12 -86 7 5 8 2 2 -7
-11 -18 -14 -70 -3 -63 5 3 9 -21 9 -54 0 -32 3 -62 7 -65 10 -11 11 -79 1
-106 -7 -19 -5 -22 7 -17 12 4 13 2 6 -13 -6 -10 -8 -21 -5 -24 3 -3 7 -13 9
-24 1 -10 8 -17 13 -16 6 2 9 -4 6 -12 -4 -8 -9 -15 -13 -15 -4 0 -7 -13 -6
-29 0 -21 3 -27 12 -20 7 7 14 6 19 -2 4 -7 3 -9 -3 -6 -5 3 -9 -10 -9 -34 0
-28 4 -39 16 -39 13 0 13 -1 0 -10 -10 -6 -11 -10 -2 -10 14 0 12 -21 -3 -32
-6 -5 -5 -8 3 -8 7 0 10 -4 7 -10 -3 -5 0 -10 7 -10 9 0 9 -3 -2 -10 -13 -8
-12 -10 3 -10 10 0 15 -5 12 -10 -4 -6 -11 -7 -17 -4 -7 4 -8 2 -4 -5 4 -6 12
-9 17 -6 5 4 9 -1 9 -10 0 -10 -5 -13 -12 -9 -7 4 -5 -2 5 -13 11 -12 15 -27
11 -38 -5 -11 -3 -16 2 -12 5 3 11 -6 12 -19 1 -14 7 -34 13 -46 8 -15 8 -19
0 -14 -6 4 -11 2 -11 -3 0 -6 5 -11 11 -11 6 0 9 -9 6 -20 -4 -14 0 -20 11
-20 13 0 12 -3 -4 -16 -17 -14 -17 -15 -1 -10 15 5 16 3 7 -14 -6 -12 -7 -19
-1 -18 5 2 9 1 8 -2 0 -3 5 -16 12 -29 11 -19 11 -22 -1 -15 -7 4 -4 -3 7 -16
11 -13 15 -20 8 -17 -18 11 -9 -19 13 -44 10 -12 13 -19 7 -15 -7 4 -13 3 -13
-3 0 -5 7 -14 16 -19 11 -6 13 -11 5 -16 -14 -9 -14 -26 0 -26 5 0 7 5 4 10
-3 5 -2 10 3 10 13 0 12 -53 -1 -61 -5 -4 0 -10 12 -14 14 -4 21 -15 21 -31 0
-14 4 -23 8 -20 4 2 9 -10 10 -27 2 -18 7 -33 12 -35 6 -2 10 -15 10 -28 0
-15 4 -23 10 -19 6 4 10 3 9 -2 -5 -29 2 -53 14 -47 7 5 6 0 -3 -11 -9 -11
-10 -16 -2 -11 8 5 12 0 12 -13 0 -12 4 -21 9 -21 14 0 20 -38 7 -45 -6 -3 -1
-3 12 -1 12 2 22 0 22 -5 0 -5 -8 -9 -17 -9 -15 0 -15 -2 -4 -9 8 -5 16 -17
17 -26 1 -9 11 -23 21 -32 10 -8 12 -12 6 -8 -9 4 -11 1 -7 -9 3 -9 10 -13 15
-10 8 5 13 -10 7 -19 -2 -2 4 -12 12 -22 9 -11 10 -16 2 -11 -6 4 -12 2 -12
-3 0 -6 7 -11 16 -11 8 0 12 -5 9 -10 -3 -6 0 -13 8 -16 8 -3 13 -16 11 -30
-1 -13 2 -24 8 -24 6 0 8 -7 5 -14 -4 -11 -1 -13 10 -9 11 4 14 2 9 -5 -4 -7
-2 -12 3 -12 6 0 10 -3 10 -8 -3 -20 2 -32 15 -32 8 0 17 -4 20 -9 4 -5 -4 -7
-16 -5 -13 2 -17 2 -10 -2 6 -3 10 -10 6 -15 -3 -5 0 -8 8 -7 7 2 13 -6 13
-16 0 -11 6 -21 13 -24 6 -2 12 -13 12 -23 0 -11 5 -17 10 -14 5 3 10 -1 10
-10 0 -9 5 -13 10 -10 6 3 10 -1 10 -10 0 -10 -5 -13 -12 -9 -9 5 -8 2 1 -10
11 -13 16 -14 23 -4 7 10 8 10 7 -2 -1 -8 -1 -24 0 -35 1 -17 3 -18 12 -5 8
12 10 8 6 -17 -3 -28 -1 -31 12 -20 9 7 12 8 8 1 -4 -7 7 -27 23 -45 27 -30
35 -49 31 -71 0 -4 6 -5 15 -1 8 3 14 2 13 -3 -1 -5 0 -12 1 -16 1 -5 3 -14 4
-20 1 -7 7 -12 14 -11 6 2 9 -4 6 -12 -4 -8 -1 -16 5 -16 26 -3 30 -4 37 -11
3 -4 -3 -5 -16 -3 -18 3 -20 2 -10 -10 7 -8 17 -12 22 -8 6 3 9 0 6 -8 -2 -7
6 -25 18 -38 13 -14 21 -28 18 -33 -3 -4 4 -8 15 -8 15 0 21 -6 21 -21 0 -12
4 -17 11 -14 6 4 9 0 7 -11 -2 -11 2 -18 10 -16 6 1 12 -6 12 -17 0 -10 9 -21
20 -24 11 -3 20 -11 20 -19 0 -11 -2 -11 -9 0 -7 11 -9 11 -14 0 -3 -9 3 -14
16 -15 24 -2 39 -22 32 -42 -5 -11 -3 -12 10 -1 13 11 14 10 8 -5 -5 -14 -3
-17 9 -12 12 4 14 1 10 -15 -4 -17 -2 -20 11 -15 9 3 16 3 16 -1 -4 -22 4 -34
26 -44 19 -8 22 -14 13 -20 -9 -5 -8 -8 5 -8 10 0 15 -4 12 -10 -3 -6 1 -10 9
-10 9 0 16 -4 16 -9 0 -11 63 -77 72 -74 4 2 4 -5 1 -14 -5 -12 -3 -14 7 -8
10 6 12 2 7 -16 -6 -23 -5 -23 8 -5 14 19 15 18 15 -10 0 -22 3 -26 10 -14 6
10 10 11 10 3 0 -7 14 -26 30 -41 17 -16 30 -35 30 -42 0 -10 4 -9 17 1 9 8
14 9 10 2 -4 -6 0 -18 9 -27 8 -9 13 -20 10 -25 -3 -5 4 -7 16 -4 19 4 20 3 8
-6 -12 -9 -11 -11 8 -11 13 0 20 -4 17 -10 -3 -5 1 -10 10 -10 9 0 13 -4 10
-10 -3 -5 1 -10 10 -10 9 0 13 -4 10 -10 -3 -5 1 -10 10 -10 9 0 13 -4 10 -10
-3 -5 -1 -10 4 -10 6 0 11 5 11 12 0 6 3 8 6 5 4 -4 1 -14 -7 -24 -8 -9 -9
-14 -3 -10 6 4 22 -2 34 -13 13 -11 27 -20 32 -20 4 0 8 -8 8 -17 0 -15 2 -16
10 -3 8 12 10 12 10 1 0 -19 40 -52 54 -44 6 4 5 -1 -2 -10 -12 -14 -11 -16 6
-12 12 2 26 -3 33 -11 6 -8 8 -14 3 -14 -5 0 6 -9 25 -21 42 -26 62 -45 54
-53 -4 -3 1 -6 10 -6 10 0 17 -4 17 -10 0 -5 7 -10 15 -10 9 0 27 -11 41 -25
14 -14 30 -22 37 -18 7 4 6 -1 -2 -10 -12 -15 -12 -17 3 -11 10 4 24 -1 35
-10 10 -9 21 -13 25 -9 4 5 6 1 4 -7 -1 -8 3 -14 10 -12 15 3 16 -10 0 -26 -8
-8 -9 -12 -1 -12 6 0 13 5 15 11 5 15 38 -1 39 -20 0 -9 3 -11 5 -4 4 8 12 5
25 -8 11 -11 17 -25 12 -32 -5 -8 -2 -8 9 1 11 9 18 10 23 2 3 -6 11 -8 16 -4
5 3 8 0 7 -7 -2 -6 3 -14 11 -17 9 -3 11 0 6 8 -5 8 -4 11 3 6 6 -4 8 -14 5
-23 -4 -10 -2 -14 4 -10 6 4 18 0 26 -8 12 -11 17 -12 20 -2 3 7 6 4 6 -6 1
-10 6 -15 11 -12 6 3 10 1 10 -5 0 -6 5 -8 10 -5 6 3 10 -1 10 -9 0 -9 9 -16
21 -16 13 0 18 -4 13 -12 -4 -7 -3 -8 5 -4 6 4 26 -2 45 -13 18 -11 37 -17 42
-13 4 4 3 -1 -4 -10 -11 -14 -10 -16 7 -11 12 3 21 1 21 -6 0 -6 7 -11 16 -11
9 0 12 -5 8 -12 -6 -10 -4 -10 8 0 13 10 18 10 24 1 5 -8 3 -9 -6 -4 -9 5 -11
4 -6 -4 4 -6 18 -9 31 -7 19 3 22 1 18 -11 -4 -11 -2 -14 5 -9 7 4 12 2 12 -4
0 -6 4 -8 10 -5 5 3 10 3 10 -2 0 -4 12 -13 26 -20 23 -11 25 -10 19 5 -5 13
-2 13 13 -3 13 -14 16 -22 8 -27 -8 -6 -8 -8 1 -8 6 0 15 5 18 10 3 6 12 10
18 10 7 0 6 -4 -3 -10 -13 -9 -13 -10 0 -11 8 -1 19 -1 23 0 5 1 6 -3 2 -9 -4
-6 6 -10 25 -10 17 0 29 -4 26 -9 -3 -5 1 -12 10 -15 9 -4 13 -2 8 5 -3 6 5 3
19 -6 15 -9 30 -14 35 -11 5 3 17 -3 27 -14 10 -11 26 -20 37 -20 10 0 18 -4
18 -9 0 -4 12 -8 28 -7 16 0 26 -4 24 -12 -1 -7 10 -12 29 -12 17 0 28 -4 24
-10 -3 -6 -1 -10 6 -10 6 0 17 -7 23 -15 8 -11 15 -12 26 -4 13 9 12 10 -2 5
-10 -3 -18 -1 -18 4 0 6 5 10 10 10 13 0 53 -22 61 -33 3 -5 9 -8 13 -8 20 3
26 0 20 -11 -5 -7 -3 -8 7 -2 23 14 42 14 30 0 -8 -9 -5 -12 12 -12 13 1 21
-4 19 -12 -1 -8 2 -11 8 -7 6 3 8 10 6 14 -3 4 1 8 9 8 8 0 12 -4 9 -9 -3 -4
4 -8 15 -8 10 0 21 -5 23 -10 2 -6 13 -12 25 -14 17 -4 21 -1 17 12 -3 9 1 6
9 -7 8 -14 17 -19 21 -13 3 5 15 8 26 5 11 -3 17 -10 13 -16 -4 -6 2 -8 15 -5
12 4 22 3 22 -1 0 -4 6 -8 13 -9 62 -7 82 -11 85 -20 2 -6 9 -9 16 -6 8 3 21
-2 30 -11 10 -10 16 -12 16 -4 0 8 4 9 13 0 10 -8 17 -7 27 2 8 7 11 8 7 1 -8
-13 30 -27 38 -14 3 4 14 6 25 3 11 -3 18 -9 15 -13 -3 -5 -1 -11 4 -14 5 -4
13 -1 17 5 5 8 3 9 -6 4 -8 -5 -11 -4 -6 3 4 6 13 9 21 6 8 -4 13 -10 10 -15
-3 -4 4 -6 15 -4 11 2 20 -2 20 -8 0 -9 2 -9 8 0 4 7 17 10 30 6 12 -3 20 -8
18 -12 -6 -9 42 -7 51 2 8 8 34 -13 28 -22 -2 -4 2 -8 10 -8 11 0 12 4 4 14
-7 8 -8 13 -1 13 5 0 15 -6 21 -14 13 -15 28 -16 50 -2 10 6 12 5 7 -2 -7 -12
5 -16 33 -13 8 2 10 -2 5 -10 -4 -8 -3 -10 4 -5 6 4 8 14 5 24 -4 11 1 9 15
-7 12 -13 22 -19 22 -13 0 7 8 12 18 12 14 0 15 -2 2 -10 -8 -5 -10 -10 -5
-10 6 0 16 5 22 11 8 8 13 8 18 -1 5 -8 10 -8 21 1 10 8 14 8 14 0 0 -6 18
-11 44 -11 26 0 46 -5 49 -12 3 -7 6 -4 7 7 1 20 1 20 15 1 8 -11 15 -14 15
-8 0 7 5 12 11 12 5 0 8 -4 5 -8 -3 -5 1 -9 9 -9 8 0 12 4 9 9 -3 4 0 8 5 8 6
0 11 -4 11 -9 0 -14 232 -13 242 1 6 10 8 10 8 1 0 -16 169 -16 188 -1 9 8 11
7 6 -5 -5 -13 -1 -15 23 -8 15 4 34 6 42 3 10 -3 11 0 5 9 -6 12 -5 12 8 1 11
-9 18 -10 23 -2 3 5 15 10 26 10 11 0 18 -4 15 -8 -3 -5 1 -9 9 -9 8 0 12 4 9
9 -3 4 0 8 5 8 6 0 11 -6 12 -12 0 -7 4 -4 9 7 5 11 9 14 9 7 1 -9 6 -10 20
-2 16 8 22 6 30 -7 10 -17 10 -17 11 0 0 19 20 24 20 5 0 -9 3 -10 8 -2 4 6
15 10 25 8 12 -1 17 2 14 10 -3 7 1 13 8 13 7 0 11 -5 9 -12 -3 -6 5 -11 16
-12 11 -1 20 3 20 8 0 6 -5 7 -12 3 -6 -4 -8 -3 -5 4 4 5 16 8 27 5 11 -3 17
-9 14 -14 -3 -5 0 -9 5 -9 6 0 11 6 11 14 0 10 7 12 22 8 15 -4 19 -2 14 7 -6
9 -2 9 14 -1 18 -10 24 -10 27 0 3 6 9 12 14 12 6 0 8 -4 5 -8 -2 -4 4 -8 14
-8 12 0 16 4 10 11 -5 7 7 10 38 10 36 1 46 4 44 15 -2 13 0 13 10 0 7 -8 21
-16 31 -16 13 -1 15 2 8 10 -7 8 -4 12 9 12 10 0 16 -5 14 -11 -3 -5 2 -1 10
9 9 11 16 15 16 10 0 -12 36 -12 47 1 5 4 2 5 -6 0 -10 -6 -12 -4 -7 4 6 9 11
9 24 -1 11 -9 13 -9 9 -1 -6 9 4 11 33 9 25 -2 47 2 54 10 10 10 16 10 25 1
10 -9 12 -9 9 3 -2 10 3 14 16 12 10 -2 16 1 12 6 -3 5 1 9 9 9 8 0 11 -5 8
-10 -3 -5 0 -7 8 -5 8 3 13 10 12 15 -1 6 13 8 33 6 22 -2 33 0 30 6 -4 6 2 8
14 6 11 -2 20 2 20 8 0 7 4 6 10 -3 8 -12 10 -12 10 -1 0 10 3 11 14 2 11 -9
14 -8 12 5 -2 23 21 29 27 7 4 -16 5 -16 6 -1 1 12 6 15 18 11 10 -4 14 -2 9
5 -3 6 -1 14 5 18 7 4 9 3 6 -3 -4 -6 0 -13 8 -17 8 -3 17 0 21 6 5 7 2 8 -6
3 -9 -6 -11 -4 -6 4 5 7 11 10 14 7 3 -4 17 1 30 10 24 16 25 15 18 -2 -7 -17
-6 -17 13 0 11 10 25 15 30 11 6 -3 11 0 11 8 0 10 9 14 30 12 30 -3 41 9 18
18 -7 3 -3 4 9 4 12 -1 19 -6 15 -12 -3 -5 1 -4 10 2 8 7 18 10 21 6 4 -3 7 2
7 13 0 16 2 17 10 4 6 -10 10 -11 10 -2 0 7 13 12 30 12 17 0 33 6 36 14 3 8
12 12 20 9 8 -3 14 0 14 6 0 6 9 11 21 11 13 0 18 4 13 13 -5 8 -2 7 9 -2 10
-8 20 -11 24 -7 3 3 1 6 -6 6 -7 0 -9 5 -6 10 4 7 13 6 27 -1 16 -9 19 -8 13
2 -6 9 -3 11 8 6 11 -4 14 -2 11 7 -4 9 3 13 20 11 14 -2 29 3 33 10 10 15 74
50 89 47 6 -1 17 5 24 13 17 20 30 19 31 -2 0 -15 2 -15 8 2 5 11 7 23 4 27
-2 4 3 5 11 2 9 -3 16 -1 16 6 0 6 5 8 10 5 6 -3 10 -2 10 3 0 6 7 13 16 16
12 4 15 2 10 -9 -9 -24 2 -17 19 13 10 16 14 19 11 7 -5 -17 -4 -18 6 -5 30
36 47 43 65 29 11 -10 14 -10 9 -1 -4 6 -2 12 3 12 6 0 11 7 11 16 0 14 3 14
15 4 13 -11 14 -10 9 5 -5 12 -4 16 3 12 6 -4 18 0 26 8 9 8 21 15 27 15 6 0
8 5 4 13 -5 8 -2 7 9 -2 15 -12 17 -12 11 3 -4 12 -2 15 9 11 8 -4 17 1 21 10
3 10 13 15 20 12 8 -3 17 1 20 9 3 9 11 12 18 8 8 -5 9 -2 4 11 -5 14 -4 15 7
7 10 -8 16 -6 25 8 6 11 21 24 32 30 17 9 19 8 14 -7 -3 -10 1 -7 9 7 17 27
34 32 56 16 12 -9 12 -7 2 13 -13 23 -12 23 13 19 23 -5 24 -3 14 10 -11 13
-10 15 10 10 18 -5 22 -2 22 15 0 18 2 19 10 7 8 -13 10 -12 10 4 0 15 3 16
15 6 13 -11 14 -10 8 5 -5 14 -3 17 10 12 10 -4 16 -2 14 6 -1 7 8 11 23 9 24
-3 24 -2 5 12 -20 15 -20 15 3 16 16 0 21 4 16 13 -6 9 -4 9 8 -1 14 -11 16
-10 12 10 -2 13 -2 18 2 11 4 -10 8 -10 19 0 7 7 10 17 7 22 -3 6 2 4 11 -4
15 -12 17 -12 11 4 -5 13 -4 16 4 11 7 -4 12 -2 12 5 0 7 3 10 6 6 8 -8 34 18
34 35 0 10 3 9 10 -2 9 -13 10 -13 11 0 1 8 1 18 0 22 0 4 5 5 12 2 7 -2 23 9
35 26 13 17 32 30 45 30 18 0 19 2 7 10 -13 9 -13 10 0 11 8 1 18 1 23 0 4 0
7 6 7 16 0 9 3 14 6 10 8 -8 34 18 34 33 0 6 5 8 10 5 6 -3 10 1 10 10 0 9 5
13 11 10 6 -4 8 -14 5 -22 -3 -8 -1 -11 5 -8 5 4 7 15 4 26 -6 18 4 24 29 20
5 -1 3 5 -4 14 -7 9 -9 15 -4 14 20 -3 35 1 30 10 -4 5 7 15 23 22 16 7 27 17
25 21 -3 4 0 8 6 8 7 0 9 7 6 16 -3 9 -2 12 5 9 11 -7 56 44 51 59 -2 5 5 3
14 -5 12 -9 15 -9 10 -1 -4 7 -2 12 4 12 6 0 8 5 5 10 -4 6 -3 10 2 9 21 -4
33 2 33 17 0 9 5 12 12 8 6 -4 8 -3 5 3 -9 14 19 37 33 28 5 -3 10 -1 10 4 0
6 -4 11 -10 11 -5 0 -10 4 -10 8 0 13 34 11 42 -2 5 -6 5 4 1 23 -4 23 -3 32
4 28 6 -4 13 0 17 8 3 8 13 15 23 15 15 0 16 2 3 10 -13 8 -12 10 3 10 9 0 16
3 16 8 -1 4 -1 14 0 22 1 13 2 13 11 0 7 -11 10 -11 10 -2 0 8 5 10 13 6 7 -5
6 0 -3 11 -9 11 -10 16 -2 11 7 -4 12 -1 12 8 0 9 5 16 11 16 5 0 7 -5 3 -12
-4 -6 -3 -8 4 -5 5 4 8 17 4 29 -4 18 -2 20 17 15 18 -4 20 -3 10 9 -7 9 -8
14 -1 14 6 0 19 13 28 30 13 20 21 26 30 20 8 -8 10 -4 7 13 -3 14 2 29 11 36
9 8 16 9 16 3 0 -6 -5 -13 -10 -15 -6 -3 -5 -4 2 -3 7 1 14 12 16 24 2 12 8
22 13 22 6 0 7 5 4 10 -3 6 -1 10 5 10 6 0 8 5 4 13 -5 8 -2 7 9 -2 15 -12 17
-12 12 0 -3 8 3 24 13 34 10 11 21 29 26 40 6 16 9 17 16 5 6 -8 10 -10 10 -4
0 5 -6 16 -12 23 -7 8 -8 11 -3 9 14 -8 32 14 29 35 -2 14 0 16 11 7 11 -10
13 -8 10 9 -2 13 1 21 10 21 7 0 19 13 27 30 7 17 16 30 20 30 3 0 12 16 18
35 6 19 14 34 18 34 20 -3 25 2 12 11 -11 7 -11 10 -2 10 7 0 10 5 7 10 -5 9
6 14 26 12 3 -1 6 5 6 13 0 8 -4 12 -9 9 -4 -3 -5 2 -2 10 3 9 10 13 15 10 5
-3 9 2 9 11 0 9 5 13 10 10 6 -3 10 -2 10 4 0 5 -6 12 -12 14 -8 3 -6 6 4 6
12 1 15 6 11 18 -4 11 -3 14 5 9 8 -5 12 0 12 13 0 12 6 20 13 19 7 -2 11 5 9
16 -3 14 1 17 12 13 14 -6 15 -3 6 13 -6 11 -7 20 -3 19 20 -3 27 2 13 11 -13
8 -12 10 3 10 10 0 15 5 12 10 -3 6 -1 10 4 10 6 0 10 6 9 13 -2 6 4 11 12 9
12 -3 12 -1 3 9 -6 6 -9 18 -6 26 4 11 8 10 19 -4 13 -16 13 -15 4 10 -7 21
-6 27 4 27 8 0 16 9 19 20 3 11 1 18 -4 14 -5 -3 -6 2 -3 10 3 9 11 14 17 13
7 -1 11 9 10 26 -1 15 1 26 5 23 5 -3 14 4 21 16 7 11 8 17 2 13 -6 -3 -11 -1
-11 4 0 6 5 11 10 11 6 0 10 7 10 16 0 9 5 12 13 8 7 -5 6 0 -3 11 -8 10 -10
16 -3 12 8 -5 14 4 19 28 3 19 10 32 15 29 5 -3 9 6 9 20 0 14 5 26 11 26 5 0
7 5 4 10 -3 6 -2 10 4 10 6 0 8 6 5 13 -2 7 4 22 15 34 22 24 16 39 -8 20 -14
-11 -14 -10 -2 5 7 10 17 15 22 12 5 -3 9 7 9 21 0 15 4 24 10 20 6 -3 10 -2
10 4 0 5 -6 12 -12 14 -9 4 -7 6 3 6 11 1 15 9 13 27 -1 17 2 24 10 21 9 -4
11 2 8 19 -2 14 2 32 10 42 8 9 14 29 13 44 -1 23 1 25 15 15 8 -6 12 -7 8 -3
-4 5 -2 16 5 24 10 13 9 14 -2 8 -9 -6 -12 -5 -9 5 3 8 10 13 16 12 8 -2 9 5
2 23 -6 14 -6 23 -1 20 5 -3 12 2 15 11 4 9 1 20 -6 25 -12 7 -4 12 15 9 5 -1
6 3 3 8 -4 5 0 12 6 14 8 3 5 6 -5 6 -17 1 -17 2 -2 17 13 13 13 19 3 32 -8
10 -8 13 -1 9 7 -4 15 5 22 23 8 24 7 29 -2 25 -7 -4 -4 0 6 8 12 10 14 17 8
22 -6 3 -11 12 -10 18 0 9 2 8 6 -1 2 -6 9 -10 14 -6 5 3 5 13 -1 24 -7 14 -6
23 5 34 16 16 20 31 7 22 -5 -3 -9 1 -9 9 0 8 4 12 8 9 4 -2 10 0 14 6 3 5 2
10 -3 10 -5 0 -7 11 -4 25 2 15 9 22 16 18 6 -4 6 -1 -2 9 -10 12 -9 18 3 28
8 7 12 16 9 21 -3 5 1 9 8 9 10 0 10 2 -1 9 -7 5 -10 14 -7 20 4 6 12 8 18 5
7 -4 8 -2 4 5 -4 6 -11 9 -16 6 -11 -7 -7 20 6 36 6 8 9 26 8 41 -2 22 1 26
14 20 15 -5 15 -4 0 12 -22 22 -23 30 -2 22 13 -5 14 -4 6 7 -7 8 -9 17 -5 21
10 10 11 46 1 46 -4 0 -8 5 -8 11 0 5 5 7 11 3 7 -4 10 -1 7 7 -3 8 2 20 11
27 9 8 10 11 4 7 -8 -4 -13 1 -13 12 0 11 6 25 13 32 10 11 10 13 0 7 -7 -4
-13 -3 -13 1 0 5 6 15 13 22 9 11 9 13 0 7 -17 -9 -17 6 0 23 6 8 7 11 2 8 -6
-3 -11 3 -11 13 0 11 5 16 14 12 12 -4 12 -1 3 16 -10 19 -9 22 6 23 16 0 16
1 -1 8 -18 7 -18 8 -3 14 9 3 17 12 16 19 0 10 -2 10 -6 1 -2 -7 -9 -13 -15
-13 -6 0 -3 12 7 26 9 15 12 23 6 20 -6 -4 -11 0 -11 9 0 9 5 13 10 10 6 -3
10 -1 10 4 0 6 -4 11 -10 11 -5 0 -10 5 -10 11 0 5 5 7 10 4 6 -3 10 1 10 10
0 9 -5 13 -11 9 -6 -3 -4 5 6 19 12 19 13 27 4 33 -7 4 -9 3 -5 -4 3 -6 2 -13
-3 -16 -10 -7 -9 13 1 30 4 6 7 66 7 135 0 68 1 131 3 139 2 9 -3 14 -11 12
-11 -2 -12 0 -3 11 15 18 13 99 -2 90 -6 -3 -5 0 2 8 16 17 16 32 0 23 -10 -6
-10 -4 0 8 10 13 10 17 0 21 -10 4 -10 6 0 6 6 1 12 6 12 12 0 5 -4 8 -8 5 -5
-3 -9 1 -9 9 0 8 3 12 7 10 3 -2 6 7 6 20 0 13 -4 21 -8 19 -5 -3 -5 -11 -2
-17 4 -7 4 -9 -1 -5 -4 4 -8 28 -9 53 -1 34 3 45 14 45 10 0 11 3 4 8 -7 4
-14 18 -16 32 -2 14 -9 24 -15 23 -13 -3 -12 22 2 34 4 4 5 3 2 -3 -4 -7 0
-15 9 -18 17 -6 12 6 -15 38 -9 11 -11 16 -4 13 6 -4 14 -3 18 3 3 5 1 10 -4
10 -6 0 -11 8 -11 18 0 10 -5 23 -12 30 -9 9 -9 12 0 12 7 0 12 5 12 11 0 5
-5 7 -11 3 -8 -5 -8 -1 0 14 9 17 8 23 -6 32 -17 11 -17 11 0 6 12 -4 17 -2
14 6 -2 7 -10 12 -16 10 -7 -1 -10 2 -7 7 4 5 2 12 -4 16 -7 4 -6 13 1 27 8
15 8 22 -1 28 -9 6 -9 9 1 13 12 5 12 6 0 6 -11 1 -11 4 0 18 12 15 12 16 -3
11 -20 -8 -18 19 3 34 11 8 10 9 -5 4 -15 -5 -17 -2 -13 14 3 11 0 20 -6 20
-7 0 -5 5 3 10 11 7 11 10 2 10 -7 0 -10 5 -7 10 3 6 0 10 -7 11 -7 0 -4 4 7
9 15 7 16 9 4 9 -19 1 -30 42 -17 65 6 10 5 16 -1 16 -5 0 -11 -3 -14 -7 -2
-5 -3 -3 -1 3 1 6 -2 17 -6 24 -5 8 -4 22 2 33 9 17 8 19 -8 13 -10 -4 -16 -4
-12 -1 3 4 3 19 -2 35 -5 16 -4 32 2 38 6 6 6 12 -3 17 -8 6 -10 4 -4 -5 5 -9
4 -11 -3 -6 -8 4 -8 15 -2 31 7 19 6 23 -4 19 -10 -4 -13 3 -11 26 2 26 1 29
-13 18 -13 -11 -14 -10 -3 10 8 15 8 22 1 22 -7 0 -8 6 0 19 7 14 7 22 -2 27
-6 4 -8 3 -4 -4 3 -6 1 -14 -6 -18 -7 -4 -10 -4 -6 1 4 4 2 15 -5 23 -8 11 -8
14 0 9 6 -4 14 -3 18 3 3 5 -1 10 -9 10 -9 0 -16 3 -17 8 0 4 -2 15 -4 25 -2
13 1 17 11 13 9 -3 12 -1 9 4 -3 6 -13 10 -21 10 -17 0 -19 26 -1 33 7 4 6 6
-4 6 -9 1 -20 8 -23 17 -6 15 -4 15 11 3 17 -13 17 -12 3 6 -26 35 -40 64 -40
86 0 11 -7 27 -15 35 -8 8 -11 22 -8 31 4 11 3 14 -5 9 -8 -5 -12 3 -12 24 0
18 -6 33 -15 36 -8 4 -12 10 -9 15 3 5 10 6 16 3 7 -4 8 -2 4 4 -4 7 -15 12
-24 12 -12 0 -13 3 -4 12 7 7 12 17 12 22 0 7 -3 7 -8 0 -5 -9 -11 -8 -20 2
-8 9 -9 14 -2 14 6 0 4 7 -5 16 -13 14 -14 19 -3 25 10 7 10 9 -2 10 -8 1 -19
1 -23 0 -5 -1 -6 2 -3 7 3 5 -1 19 -8 33 -23 44 -27 61 -13 54 6 -4 4 0 -5 8
-20 16 -25 32 -6 21 7 -4 8 -3 4 4 -4 7 -14 12 -22 12 -13 0 -19 13 -15 34 1
4 -3 14 -9 20 -5 7 -7 16 -3 19 3 4 1 7 -6 7 -7 0 -9 5 -6 10 3 6 -2 10 -12
10 -15 0 -16 2 -3 10 12 8 12 10 1 10 -9 0 -11 7 -8 21 4 17 3 18 -9 8 -12
-10 -13 -9 -8 6 6 14 4 16 -6 10 -9 -5 -11 -4 -6 3 4 7 2 12 -5 12 -8 0 -7 5
2 17 10 11 10 14 2 9 -8 -4 -13 -1 -13 8 0 9 -8 16 -17 16 -14 0 -15 2 -5 9
11 7 11 11 -2 24 -9 8 -16 23 -16 31 0 9 -4 16 -10 16 -5 0 -7 -8 -4 -17 5
-14 4 -15 -4 -4 -5 8 -9 25 -7 38 1 13 0 21 -3 19 -7 -8 -32 21 -32 38 0 9 -5
16 -11 16 -5 0 -7 5 -4 10 3 6 -2 10 -12 10 -15 0 -16 2 -3 10 13 8 13 10 -2
10 -12 0 -15 5 -11 17 5 12 2 15 -9 11 -14 -6 -16 -2 -20 41 -2 13 -8 18 -21
15 -15 -3 -17 -1 -7 11 10 12 9 15 -5 15 -14 0 -15 3 -5 15 11 13 10 14 -5 9
-13 -5 -16 -4 -11 4 4 7 3 12 -3 12 -6 0 -15 10 -22 21 -9 17 -8 20 2 14 8 -5
10 -4 5 3 -4 7 -14 12 -23 12 -11 0 -14 6 -10 21 5 17 3 18 -9 8 -8 -7 -14 -8
-13 -3 5 18 -13 54 -27 54 -8 0 -14 9 -14 20 0 11 -4 20 -10 20 -5 0 -10 7
-10 16 0 8 -4 12 -10 9 -5 -3 -10 1 -10 10 0 9 -5 13 -10 10 -6 -4 -9 -1 -8 7
2 7 -4 12 -12 10 -12 -3 -13 -1 -2 9 6 7 12 18 12 23 0 6 -5 4 -10 -4 -9 -13
-10 -13 -11 0 -1 8 -1 18 0 22 0 4 -6 5 -14 2 -11 -5 -13 -2 -9 10 4 11 2 16
-7 14 -8 -2 -13 3 -11 11 2 8 -3 11 -13 8 -9 -4 -15 -1 -15 7 0 7 -9 21 -20
31 -12 10 -18 25 -15 33 3 9 -1 12 -15 7 -15 -5 -18 -3 -14 9 4 11 0 16 -12
17 -11 0 -14 3 -7 6 10 3 10 8 -1 19 -8 8 -20 14 -26 14 -6 0 -13 7 -16 15 -4
8 -11 12 -18 8 -6 -4 -5 1 3 10 8 10 11 20 7 24 -3 3 -6 1 -6 -6 0 -9 -4 -9
-14 1 -8 7 -11 17 -8 22 3 5 -2 7 -11 3 -13 -5 -17 -1 -17 14 0 11 -4 17 -10
14 -5 -3 -10 1 -10 9 0 10 -9 16 -22 16 -19 0 -20 2 -8 10 13 9 13 10 0 10
-13 0 -13 2 0 11 13 9 12 10 -3 5 -11 -4 -27 2 -40 16 -12 11 -15 17 -7 13 10
-6 8 -1 -4 13 -21 24 -32 29 -20 10 4 -7 3 -8 -5 -4 -7 4 -9 17 -6 29 4 12 3
18 -2 12 -10 -13 -36 -18 -29 -6 3 5 -1 11 -9 15 -8 3 -15 12 -15 21 0 8 -8
15 -17 15 -15 0 -16 2 -3 10 12 8 11 10 -7 10 -24 0 -29 9 -15 26 4 5 3 6 -3
2 -5 -5 -16 -8 -25 -8 -13 0 -13 1 0 10 11 7 11 10 2 10 -7 0 -23 10 -35 21
-12 12 -16 18 -8 14 10 -5 12 -4 7 4 -4 6 -11 9 -16 6 -5 -3 -15 1 -23 9 -8 8
-18 12 -22 8 -5 -4 -5 -2 -1 5 4 7 -2 17 -14 23 -12 6 -18 16 -14 23 4 7 4 9
-1 5 -4 -4 -14 0 -22 8 -8 8 -19 12 -24 9 -5 -4 -9 1 -9 10 0 11 -5 15 -14 12
-10 -4 -13 -1 -9 9 3 9 -2 14 -17 14 -13 0 -24 8 -27 20 -3 11 -10 20 -15 20
-5 0 -6 -5 -2 -12 5 -7 3 -8 -5 -3 -7 4 -11 15 -8 24 3 14 -1 17 -22 14 -20
-4 -23 -2 -11 6 13 9 11 11 -6 11 -13 0 -24 8 -27 20 -3 14 -14 20 -31 20 -19
0 -26 5 -26 20 0 11 -7 20 -15 20 -20 0 -55 31 -48 43 3 6 1 7 -6 3 -6 -4 -8
-13 -5 -19 3 -7 -5 1 -20 17 -14 16 -26 25 -26 21 0 -5 -7 0 -16 11 -8 10 -12
12 -8 4 7 -13 5 -13 -9 -1 -9 7 -14 18 -10 25 3 6 3 8 -2 4 -12 -11 -47 11
-38 25 4 7 -2 5 -12 -3 -17 -14 -18 -13 -13 2 5 11 2 15 -10 13 -9 -1 -22 2
-29 7 -7 5 -17 7 -23 3 -6 -4 -10 -3 -9 2 3 18 -3 47 -8 36 -2 -7 -10 -13 -15
-13 -6 0 -8 3 -5 6 4 4 -3 15 -15 25 -25 22 -34 24 -22 6 5 -7 2 -5 -8 5 -9
10 -21 18 -28 18 -6 0 -8 5 -5 10 3 6 1 10 -4 10 -6 0 -11 -6 -11 -12 0 -9 -3
-8 -10 2 -6 9 -5 19 3 29 7 9 0 7 -18 -5 -16 -10 -26 -13 -22 -6 5 7 3 12 -7
12 -9 0 -16 5 -16 10 0 6 -7 10 -16 10 -9 0 -23 8 -31 18 -10 11 -12 12 -8 2
4 -9 1 -8 -8 3 -11 14 -16 15 -21 5 -3 -7 -4 -2 -2 11 4 18 2 21 -7 12 -14
-14 -30 -15 -22 -1 3 6 3 10 -2 11 -28 2 -47 9 -53 18 -3 6 -18 12 -33 13 -22
2 -24 5 -14 18 6 8 7 12 3 8 -5 -4 -16 -2 -24 5 -13 10 -15 9 -8 -3 6 -13 6
-13 -6 0 -7 9 -23 15 -35 14 -14 -1 -23 4 -23 13 0 8 -4 12 -9 8 -5 -3 -17 2
-25 11 -12 11 -16 12 -16 2 0 -7 -7 -3 -15 9 -10 14 -21 20 -32 16 -10 -4 -14
-2 -10 4 5 7 0 9 -13 6 -12 -3 -20 0 -20 6 0 7 -4 10 -9 6 -5 -3 -16 2 -24 10
-19 18 -51 20 -42 3 4 -7 -2 -3 -13 10 -11 12 -25 22 -32 22 -6 0 -8 5 -5 10
3 6 2 10 -4 10 -5 0 -12 -8 -14 -17 -4 -17 -5 -17 -6 0 -1 11 -10 17 -26 18
-37 2 -43 3 -51 12 -4 4 -18 7 -31 7 -13 0 -22 4 -19 8 2 4 -4 14 -16 21 -11
7 -17 8 -14 2 4 -5 2 -12 -4 -16 -5 -3 -10 1 -10 9 0 11 -9 16 -30 16 -16 0
-30 4 -30 9 0 5 -7 12 -16 15 -14 6 -15 4 -4 -9 12 -14 11 -15 -13 -4 -15 7
-27 17 -27 23 0 6 -4 6 -11 -1 -17 -17 -43 -5 -28 13 10 12 9 13 -5 8 -9 -3
-16 -11 -16 -18 0 -8 -2 -8 -8 0 -10 15 -57 30 -48 15 5 -7 1 -8 -10 -4 -11 4
-13 8 -6 11 22 7 12 19 -12 15 -13 -3 -27 0 -31 7 -5 8 -12 7 -24 -4 -15 -14
-18 -14 -18 -1 0 8 5 11 10 8 6 -3 7 -2 4 3 -3 6 -22 9 -41 9 -20 -1 -36 2
-36 7 0 5 -4 6 -10 3 -5 -3 -10 -1 -10 5 0 7 -8 9 -20 5 -12 -4 -28 -1 -37 7
-10 7 -14 8 -10 1 4 -7 1 -10 -9 -9 -19 3 -35 26 -27 40 3 5 1 6 -6 2 -6 -4
-9 -11 -6 -15 2 -5 -18 -8 -46 -7 -29 2 -54 8 -59 16 -4 7 -15 10 -23 7 -10
-4 -17 1 -20 11 -4 16 -5 16 -6 0 -1 -11 -6 -15 -16 -12 -8 4 -12 11 -8 18 4
6 -1 5 -10 -3 -10 -7 -17 -9 -17 -3 0 6 -8 9 -17 7 -10 -1 -28 2 -40 6 -15 5
-23 5 -23 -2 0 -6 -5 -7 -10 -4 -6 4 -7 12 -4 18 5 8 3 8 -7 0 -16 -15 -49
-17 -49 -3 0 6 -5 10 -11 10 -5 0 -8 -4 -4 -9 3 -5 1 -13 -5 -16 -6 -4 -9 -1
-8 7 2 9 -8 13 -29 13 -23 0 -33 5 -34 15 0 10 -3 9 -9 -5 -5 -11 -9 -14 -9
-7 -1 7 -6 10 -12 7 -13 -9 -68 -13 -67 -6 2 19 -4 24 -12 11 -6 -10 -10 -11
-10 -2 0 14 -46 16 -55 2 -3 -5 -12 -10 -18 -10 -8 0 -8 3 1 9 12 7 -55 14
-123 12 -10 0 -26 5 -34 12 -11 9 -13 9 -8 0 5 -8 -15 -12 -73 -15 -65 -2 -79
0 -75 11 5 12 3 12 -11 0 -19 -15 -51 -13 -73 4 -12 9 -13 9 -7 0z m-464 -53
c0 -5 -2 -10 -4 -10 -3 0 -8 5 -11 10 -3 6 -1 10 4 10 6 0 11 -4 11 -10z
m-546 -98 c3 -5 -1 -9 -9 -9 -8 0 -12 4 -9 9 3 4 7 8 9 8 2 0 6 -4 9 -8z
m-704 -242 c0 -5 -5 -10 -11 -10 -5 0 -7 5 -4 10 3 6 8 10 11 10 2 0 4 -4 4
-10z m3674 2 c3 -5 -1 -9 -9 -9 -8 0 -12 4 -9 9 3 4 7 8 9 8 2 0 6 -4 9 -8z
m-6244 -2932 c0 -5 -5 -10 -11 -10 -5 0 -7 5 -4 10 3 6 8 10 11 10 2 0 4 -4 4
-10z m-130 -2040 c0 -5 -5 -10 -11 -10 -5 0 -7 5 -4 10 3 6 8 10 11 10 2 0 4
-4 4 -10z m145 -610 c3 -6 -1 -7 -9 -4 -18 7 -21 14 -7 14 6 0 13 -4 16 -10z
m5415 -3136 c0 -8 -19 -13 -24 -6 -3 5 1 9 9 9 8 0 15 -2 15 -3z"/>
<path d="M4233 9665 c0 -8 4 -12 9 -9 5 3 6 10 3 15 -9 13 -12 11 -12 -6z"/>
<path d="M5946 9658 c3 -4 9 -8 15 -8 5 0 9 4 9 8 0 5 -7 9 -15 9 -8 0 -12 -4
-9 -9z"/>
<path d="M4115 9640 c-3 -5 -1 -10 4 -10 6 0 11 5 11 10 0 6 -2 10 -4 10 -3 0
-8 -4 -11 -10z"/>
<path d="M6635 9600 c3 -5 8 -10 11 -10 2 0 4 5 4 10 0 6 -5 10 -11 10 -5 0
-7 -4 -4 -10z"/>
<path d="M6819 9513 c-13 -16 -12 -17 4 -4 9 7 17 15 17 17 0 8 -8 3 -21 -13z"/>
<path d="M7246 9278 c3 -5 10 -6 15 -3 13 9 11 12 -6 12 -8 0 -12 -4 -9 -9z"/>
<path d="M2796 9132 c-3 -4 4 -9 15 -9 23 -2 25 3 4 10 -8 4 -16 3 -19 -1z"/>
<path d="M7510 9099 c0 -5 5 -7 10 -4 6 3 10 8 10 11 0 2 -4 4 -10 4 -5 0 -10
-5 -10 -11z"/>
<path d="M7541 9047 c2 -1 13 -9 24 -17 19 -14 19 -14 6 3 -7 9 -18 17 -24 17
-6 0 -8 -1 -6 -3z"/>
<path d="M2610 8999 c0 -5 5 -7 10 -4 6 3 10 8 10 11 0 2 -4 4 -10 4 -5 0 -10
-5 -10 -11z"/>
<path d="M2387 8919 c7 -7 15 -10 18 -7 3 3 -2 9 -12 12 -14 6 -15 5 -6 -5z"/>
<path d="M1990 8560 c0 -5 5 -10 11 -10 5 0 7 5 4 10 -3 6 -8 10 -11 10 -2 0
-4 -4 -4 -10z"/>
<path d="M8635 8180 c-3 -5 -1 -10 4 -10 6 0 11 5 11 10 0 6 -2 10 -4 10 -3 0
-8 -4 -11 -10z"/>
<path d="M1480 8040 c-9 -6 -10 -10 -3 -10 6 0 15 5 18 10 8 12 4 12 -15 0z"/>
<path d="M1166 7678 c3 -5 10 -6 15 -3 13 9 11 12 -6 12 -8 0 -12 -4 -9 -9z"/>
<path d="M887 7019 c7 -7 15 -10 18 -7 3 3 -2 9 -12 12 -14 6 -15 5 -6 -5z"/>
<path d="M9506 6638 c3 -5 10 -6 15 -3 13 9 11 12 -6 12 -8 0 -12 -4 -9 -9z"/>
<path d="M715 6580 c-3 -5 -1 -10 4 -10 6 0 11 5 11 10 0 6 -2 10 -4 10 -3 0
-8 -4 -11 -10z"/>
<path d="M9606 6178 c3 -5 10 -6 15 -3 13 9 11 12 -6 12 -8 0 -12 -4 -9 -9z"/>
<path d="M9667 5839 c7 -7 15 -10 18 -7 3 3 -2 9 -12 12 -14 6 -15 5 -6 -5z"/>
<path d="M9695 5720 c-3 -5 -1 -10 4 -10 6 0 11 5 11 10 0 6 -2 10 -4 10 -3 0
-8 -4 -11 -10z"/>
<path d="M426 5402 c-3 -5 1 -9 9 -9 8 0 12 4 9 9 -3 4 -7 8 -9 8 -2 0 -6 -4
-9 -8z"/>
<path d="M9756 5233 c-6 -14 -5 -15 5 -6 7 7 10 15 7 18 -3 3 -9 -2 -12 -12z"/>
<path d="M479 4953 c-13 -16 -12 -17 4 -4 9 7 17 15 17 17 0 8 -8 3 -21 -13z"/>
<path d="M436 4722 c-3 -5 1 -9 9 -9 8 0 12 4 9 9 -3 4 -7 8 -9 8 -2 0 -6 -4
-9 -8z"/>
<path d="M518 4613 c7 -3 16 -2 19 1 4 3 -2 6 -13 5 -11 0 -14 -3 -6 -6z"/>
<path d="M796 3393 c-6 -14 -5 -15 5 -6 7 7 10 15 7 18 -3 3 -9 -2 -12 -12z"/>
<path d="M9150 2839 c0 -5 5 -7 10 -4 6 3 10 8 10 11 0 2 -4 4 -10 4 -5 0 -10
-5 -10 -11z"/>
<path d="M8866 2302 c-3 -5 1 -9 9 -9 8 0 12 4 9 9 -3 4 -7 8 -9 8 -2 0 -6 -4
-9 -8z"/>
<path d="M8665 2120 c-3 -6 1 -7 9 -4 18 7 21 14 7 14 -6 0 -13 -4 -16 -10z"/>
<path d="M8369 1853 c-13 -16 -12 -17 4 -4 16 13 21 21 13 21 -2 0 -10 -8 -17
-17z"/>
<path d="M8269 1683 c-13 -16 -12 -17 4 -4 9 7 17 15 17 17 0 8 -8 3 -21 -13z"/>
<path d="M8070 1579 c0 -5 5 -7 10 -4 6 3 10 8 10 11 0 2 -4 4 -10 4 -5 0 -10
-5 -10 -11z"/>
<path d="M8033 1515 c0 -8 4 -12 9 -9 5 3 6 10 3 15 -9 13 -12 11 -12 -6z"/>
<path d="M2430 1361 c0 -6 4 -13 10 -16 6 -3 7 1 4 9 -7 18 -14 21 -14 7z"/>
<path d="M7475 1120 c3 -5 8 -10 11 -10 2 0 4 5 4 10 0 6 -5 10 -11 10 -5 0
-7 -4 -4 -10z"/>
<path d="M7190 961 c0 -6 4 -13 10 -16 6 -3 7 1 4 9 -7 18 -14 21 -14 7z"/>
<path d="M7019 913 c-13 -16 -12 -17 4 -4 9 7 17 15 17 17 0 8 -8 3 -21 -13z"/>
<path d="M3275 889 c-4 -6 -4 -13 -1 -16 3 -4 6 -1 6 7 0 10 4 10 18 -1 15
-13 16 -12 3 4 -16 20 -18 20 -26 6z"/>
<path d="M3236 842 c-3 -5 1 -9 9 -9 8 0 12 4 9 9 -3 4 -7 8 -9 8 -2 0 -6 -4
-9 -8z"/>
<path d="M6516 673 c-6 -14 -5 -15 5 -6 7 7 10 15 7 18 -3 3 -9 -2 -12 -12z"/>
<path d="M3880 640 c-9 -6 -10 -10 -3 -10 6 0 15 5 18 10 8 12 4 12 -15 0z"/>
</g>
</svg>
