<?xml version="1.0" standalone="no"?>
<!DOCTYPE svg PUBLIC "-//W3C//DTD SVG 20010904//EN"
 "http://www.w3.org/TR/2001/REC-SVG-20010904/DTD/svg10.dtd">
<svg version="1.0" xmlns="http://www.w3.org/2000/svg"
 width="961.000000pt" height="961.000000pt" viewBox="0 0 961.000000 961.000000"
 preserveAspectRatio="xMidYMid meet">
<metadata>
Created by potrace 1.14, written by Peter Selinger 2001-2017
</metadata>
<g transform="translate(0.000000,961.000000) scale(0.100000,-0.100000)"
fill="#000000" stroke="none">
<path d="M4448 9605 c-2 -2 -30 -6 -63 -10 -32 -3 -62 -8 -65 -10 -3 -1 -29
-6 -59 -9 -30 -4 -98 -17 -150 -30 -53 -13 -132 -32 -176 -41 -186 -40 -401
-115 -530 -185 -270 -146 -446 -368 -487 -611 l-11 -71 -66 -30 c-36 -17 -73
-34 -81 -39 -253 -138 -384 -217 -547 -331 -400 -279 -774 -645 -1059 -1034
-472 -646 -770 -1408 -849 -2169 -4 -33 -8 -71 -11 -85 -6 -38 -18 -323 -18
-430 0 -110 14 -411 19 -419 1 -3 6 -40 9 -81 15 -177 81 -517 142 -730 95
-334 276 -763 422 -1004 23 -37 42 -70 42 -71 0 -2 19 -34 42 -72 294 -473
695 -910 1143 -1245 583 -436 1245 -716 1990 -843 69 -11 267 -35 355 -42 126
-10 599 -10 725 0 284 23 595 79 873 158 1435 406 2582 1503 3055 2919 87 262
163 589 192 825 3 28 8 68 11 90 32 233 37 740 9 960 -2 17 -7 59 -10 95 -4
36 -9 72 -10 82 -2 9 -7 38 -11 65 -3 26 -8 57 -10 68 -3 11 -7 36 -10 55 -14
98 -97 433 -138 563 -43 134 -109 311 -147 395 -16 35 -29 66 -29 69 0 6 -157
321 -193 388 -12 22 -32 54 -44 72 -13 17 -23 34 -23 37 0 21 -197 307 -324
471 -79 101 -84 107 -223 260 -291 318 -680 635 -1028 835 -16 10 -64 37 -105
61 -117 67 -381 191 -535 252 -117 46 -289 107 -317 113 -5 1 -9 2 -10 4 -2 1
-10 3 -18 5 -8 2 -82 22 -165 44 -158 42 -366 86 -456 97 -80 10 -78 9 -89 20
-5 5 -21 31 -35 57 -119 225 -163 285 -266 367 -95 75 -224 129 -369 155 -35
7 -287 15 -292 10z"/>
</g>
</svg>
