<?xml version="1.0" standalone="no"?>
<!DOCTYPE svg PUBLIC "-//W3C//DTD SVG 20010904//EN"
 "http://www.w3.org/TR/2001/REC-SVG-20010904/DTD/svg10.dtd">
<svg version="1.0" xmlns="http://www.w3.org/2000/svg"
 width="640.000000pt" height="640.000000pt" viewBox="0 0 640.000000 640.000000"
 preserveAspectRatio="xMidYMid meet">
<metadata>
Created by potrace 1.14, written by Peter Selinger 2001-2017
</metadata>
<g transform="translate(0.000000,640.000000) scale(0.100000,-0.100000)"
fill="#000000" stroke="none">
<path d="M3174 5326 c-12 -6 -30 -18 -40 -26 -16 -13 -17 -13 -10 0 4 9 1 8
-7 -2 -8 -10 -19 -18 -24 -18 -6 0 -16 -7 -23 -15 -7 -8 -16 -13 -20 -10 -5 3
-14 -1 -22 -8 -21 -20 -68 -48 -68 -41 0 4 -9 -1 -20 -11 -11 -10 -20 -15 -20
-11 0 4 -10 -2 -22 -14 -24 -22 -34 -25 -41 -10 -3 6 -4 5 -3 -2 2 -7 -15 -24
-36 -36 -33 -20 -41 -22 -56 -10 -15 12 -16 11 -4 -4 11 -14 10 -18 -6 -27
-11 -6 -22 -8 -25 -4 -4 3 -9 -2 -13 -11 -3 -9 -14 -16 -24 -16 -10 0 -23 -7
-30 -15 -7 -8 -19 -15 -26 -15 -8 0 -14 -4 -14 -9 0 -5 -12 -14 -27 -20 -16
-6 -47 -22 -71 -36 -24 -14 -49 -22 -55 -19 -7 4 -9 4 -5 -1 11 -11 -59 -58
-95 -63 -7 -2 -22 -12 -52 -40 -8 -7 -15 -10 -15 -6 0 3 -7 1 -15 -6 -8 -7
-15 -9 -15 -4 0 5 -7 -2 -16 -14 -8 -12 -22 -22 -31 -22 -9 0 -24 -6 -32 -14
-9 -7 -43 -28 -76 -46 -33 -17 -65 -36 -71 -41 -6 -5 -14 -6 -17 -2 -4 3 -7 2
-7 -4 0 -15 -100 -64 -113 -56 -7 3 -9 3 -5 -2 10 -10 -36 -46 -61 -48 -11 -1
-18 -3 -16 -6 5 -5 -72 -51 -90 -54 -5 -1 -12 -5 -15 -9 -3 -4 -26 -19 -50
-32 -25 -14 -63 -35 -85 -48 -22 -12 -43 -21 -47 -20 -5 1 -8 -2 -8 -6 0 -8
-35 -28 -53 -30 -4 -1 -15 -8 -23 -17 -9 -8 -22 -15 -30 -15 -8 0 -14 -4 -14
-9 0 -19 -34 -21 -54 -4 -21 18 -21 18 -2 -4 18 -22 18 -23 0 -30 -11 -4 -24
-12 -29 -17 -12 -12 -13 -75 -2 -93 4 -6 3 -14 -3 -18 -6 -3 -8 -17 -6 -31 3
-14 0 -24 -7 -24 -8 0 -7 -4 2 -9 12 -8 12 -12 -2 -26 -10 -9 -17 -19 -17 -23
0 -3 5 -1 12 6 16 16 33 16 21 0 -6 -7 -9 -52 -8 -100 2 -75 0 -86 -14 -81
-14 4 -14 3 -1 -9 22 -19 22 -268 0 -261 -8 2 -4 -3 10 -11 22 -14 21 -21 -3
-17 -5 1 -5 -4 0 -11 14 -23 10 -56 -7 -50 -9 3 -6 -4 8 -17 16 -16 20 -27 14
-39 -5 -9 -7 -29 -6 -45 2 -15 -1 -25 -6 -22 -4 3 -10 -2 -13 -10 -4 -8 -1
-12 6 -9 9 3 12 -31 12 -133 l0 -138 -25 2 c-22 2 -23 1 -7 -8 9 -6 15 -14 12
-20 -4 -5 -1 -9 4 -9 6 0 11 7 11 15 0 8 5 15 10 15 7 0 7 -6 2 -17 -5 -10 -8
-116 -7 -236 0 -120 -3 -221 -8 -224 -5 -3 -14 0 -20 6 -6 6 -16 11 -21 11 -6
0 0 -7 12 -16 12 -8 20 -21 16 -27 -3 -7 1 -4 9 6 8 9 18 17 22 17 4 0 3 -6
-3 -12 -5 -7 -9 -25 -7 -40 3 -25 -4 -33 -28 -29 -4 1 -3 -8 3 -19 12 -23 22
-27 14 -5 -4 8 -2 15 3 15 5 0 9 -34 10 -75 0 -71 -4 -80 -30 -76 -4 1 -3 -8
3 -19 12 -23 22 -27 14 -5 -4 8 -2 15 3 15 5 0 9 -34 10 -75 0 -73 -3 -80 -35
-76 -8 1 -7 -5 5 -18 21 -25 24 -26 17 -6 -4 8 -2 15 3 15 13 0 13 -72 0 -88
-6 -8 -12 -23 -14 -33 -2 -16 -1 -18 11 -7 8 8 10 15 4 19 -22 14 14 20 42 7
22 -9 28 -18 24 -30 -3 -10 0 -18 6 -18 6 0 8 -5 4 -12 -4 -7 -3 -8 4 -4 7 4
12 3 12 -2 0 -6 -7 -12 -15 -16 -17 -6 -20 -26 -4 -26 5 0 8 4 5 9 -3 5 1 11
9 15 20 7 19 32 -1 40 -31 12 -8 16 24 5 33 -11 40 -23 20 -35 -6 -4 -8 -3 -4
4 3 6 1 14 -6 18 -7 4 -10 4 -6 -1 4 -4 2 -17 -3 -28 -8 -15 -8 -22 2 -28 19
-12 29 -11 29 2 0 5 -4 8 -9 4 -5 -3 -12 -1 -15 4 -3 5 1 12 9 15 9 3 18 -1
22 -9 5 -13 7 -13 19 2 14 17 14 17 12 -2 -2 -14 2 -20 15 -19 21 2 22 -10 2
-30 -19 -19 -19 -32 0 -16 12 10 18 10 30 0 10 -9 15 -9 15 -1 0 6 5 11 11 11
6 0 8 -8 4 -19 -3 -11 -1 -22 4 -25 6 -4 7 -14 4 -23 -6 -15 -5 -16 9 -3 9 8
12 16 8 18 -11 4 -1 32 12 32 5 0 6 -4 3 -10 -3 -5 -1 -10 5 -10 7 0 10 6 8
13 -3 6 -11 12 -19 12 -8 0 -19 8 -25 19 -8 13 -13 15 -18 7 -4 -6 -12 -11
-18 -11 -6 0 -8 3 -5 6 12 13 -13 43 -31 37 -14 -5 -15 -3 -5 7 10 11 16 10
33 -5 11 -10 20 -14 20 -10 0 5 10 0 23 -11 12 -11 34 -26 50 -34 15 -7 27
-17 27 -22 0 -5 -6 -6 -12 -2 -10 6 -10 4 -2 -7 16 -21 25 -49 15 -49 -5 0
-11 9 -14 20 -3 11 -11 20 -19 19 -10 0 -10 -2 0 -6 6 -2 12 -11 12 -18 0 -21
19 -28 36 -14 13 10 17 10 24 -2 7 -10 9 -8 7 8 -1 18 -4 20 -21 11 -16 -9
-18 -8 -13 6 4 9 2 16 -4 16 -6 0 -7 5 -3 11 5 8 9 8 14 -1 4 -7 12 -10 17 -7
16 10 33 -36 21 -57 -8 -14 -12 -15 -26 -4 -9 8 -13 8 -9 1 4 -6 1 -14 -5 -17
-7 -2 -2 -3 12 -2 14 2 31 -1 38 -6 8 -7 12 -7 12 1 0 6 -5 11 -11 11 -8 0 -8
4 0 14 6 7 8 22 4 32 -6 17 -5 17 9 6 12 -10 16 -26 13 -60 -1 -26 -1 -39 2
-30 4 16 39 34 56 30 5 -1 6 2 3 6 -3 5 -17 8 -31 7 -26 -3 -34 9 -11 18 21 8
68 -27 55 -40 -6 -6 -17 -9 -24 -7 -16 6 -29 -12 -20 -27 5 -7 15 -4 29 9 34
30 46 35 46 17 0 -9 -4 -14 -9 -11 -10 7 -34 -19 -37 -40 -1 -8 2 -16 6 -19 5
-3 7 4 5 16 -3 15 0 19 10 15 9 -3 12 0 8 10 -5 14 -3 14 15 3 11 -7 18 -17
15 -23 -4 -5 0 -7 9 -3 9 3 25 -1 36 -9 13 -9 23 -11 27 -4 6 9 -1 14 -17 11
-5 0 -8 4 -8 9 0 5 -3 9 -7 9 -20 -3 -34 2 -28 11 3 6 -1 7 -10 4 -11 -5 -14
-2 -9 10 5 14 9 14 34 -4 15 -11 33 -20 39 -20 6 0 11 -5 11 -11 0 -5 5 -7 11
-3 8 4 8 0 0 -15 -13 -24 -5 -45 14 -37 9 3 12 -6 10 -35 -1 -21 2 -36 6 -33
5 3 7 10 4 15 -4 5 1 9 9 9 9 0 16 5 16 11 0 5 5 7 10 4 6 -3 10 -1 10 4 0 14
-13 14 -28 -1 -6 -6 -15 -9 -19 -5 -10 11 30 37 47 31 8 -4 21 -7 28 -7 6 0
12 -7 12 -15 0 -9 3 -13 6 -9 8 8 64 -21 64 -33 0 -5 6 -7 14 -4 7 3 23 -7 35
-22 l22 -28 -23 -12 c-12 -6 -29 -10 -37 -7 -14 4 -14 3 -2 -5 10 -7 21 -7 32
-1 23 12 29 11 29 -1 0 -5 -6 -10 -14 -10 -8 0 -18 -5 -22 -12 -5 -7 -2 -9 8
-5 9 3 20 1 25 -4 6 -6 9 1 8 21 -1 24 2 30 14 25 13 -4 12 -2 -1 9 -25 18
-23 29 2 14 11 -7 20 -18 20 -25 0 -6 4 -15 10 -18 6 -3 7 1 4 12 -5 17 -5 17
6 1 6 -10 17 -15 26 -11 11 4 14 0 10 -20 -3 -20 -1 -24 11 -20 11 4 11 8 3
13 -9 5 -9 9 -1 14 6 4 11 3 11 -2 0 -5 22 -20 50 -33 27 -13 49 -27 50 -31 0
-9 -21 -4 -48 10 -12 7 -28 10 -34 6 -8 -5 -9 -2 -5 9 5 13 -4 12 -43 -9 -50
-26 -66 -39 -32 -27 9 4 27 13 39 20 14 10 23 11 28 4 3 -6 0 -11 -8 -11 -8 0
-22 -12 -31 -27 -17 -27 -17 -27 1 -8 26 30 48 36 72 19 11 -8 21 -11 21 -6 0
5 7 9 15 9 10 0 13 -6 9 -19 -3 -11 1 -20 11 -24 12 -5 15 -14 11 -33 l-5 -26
11 24 c10 20 9 25 -7 37 -10 8 -15 17 -11 21 4 5 15 -1 25 -13 9 -11 21 -19
27 -17 6 2 17 -3 24 -12 14 -17 30 -20 30 -4 0 5 -4 8 -9 4 -6 -3 -13 1 -18 9
-4 7 -17 15 -27 17 -11 2 -19 8 -19 14 2 17 19 16 40 -4 11 -11 24 -17 27 -14
3 4 6 1 6 -6 0 -7 4 -10 9 -7 5 3 19 -2 32 -12 13 -9 44 -28 69 -41 25 -14 48
-29 52 -35 4 -6 8 -7 8 -3 0 5 7 1 16 -7 8 -9 20 -14 25 -11 5 4 9 -5 9 -19 0
-14 6 -26 13 -26 6 0 -5 -11 -27 -24 -30 -18 -35 -24 -22 -29 10 -4 14 -3 11
3 -3 5 8 16 24 25 36 18 49 19 33 3 -7 -7 -12 -17 -12 -23 0 -5 7 -2 14 7 12
17 14 17 30 -1 11 -12 14 -21 7 -26 -6 -3 -11 -12 -11 -18 0 -7 7 -3 15 7 11
14 12 23 4 33 -14 16 3 17 19 1 8 -8 12 -8 12 -1 0 13 -28 25 -41 17 -5 -3 -9
-1 -9 4 0 5 -11 14 -25 20 -14 6 -25 16 -25 22 0 16 14 12 38 -10 12 -11 26
-20 32 -20 6 0 29 -12 53 -27 23 -15 44 -28 47 -28 3 0 15 -6 28 -14 17 -9 20
-16 13 -25 -7 -8 -5 -12 9 -12 10 0 16 4 14 8 -3 4 0 8 5 8 6 0 11 -4 11 -10
0 -5 7 -10 16 -10 9 0 12 -5 8 -12 -5 -7 -2 -9 8 -5 9 3 24 -2 35 -11 10 -9
25 -18 32 -20 7 -1 25 -11 39 -22 15 -10 34 -20 42 -20 22 -3 60 11 60 21 0 5
7 9 16 9 8 0 22 7 30 15 9 8 24 15 35 15 13 0 18 4 13 12 -4 6 -3 8 4 4 6 -3
14 -1 17 5 4 5 13 8 21 5 9 -3 11 0 7 11 -4 11 -2 14 5 9 7 -4 12 -2 12 3 0 6
5 11 10 11 6 0 31 13 57 29 43 27 49 28 64 15 11 -10 19 -12 24 -5 6 10 -1 15
-17 12 -5 0 -8 3 -8 7 0 4 29 23 65 42 36 19 65 39 65 44 0 5 3 7 6 4 3 -4 22
5 42 18 32 22 38 23 48 10 6 -9 15 -16 19 -16 4 0 2 7 -5 15 -15 18 -8 29 32
46 18 7 39 19 46 26 7 7 22 13 33 13 14 0 18 4 13 12 -5 9 -2 8 9 -1 15 -12
17 -12 11 4 -5 13 -4 16 4 11 7 -4 12 -2 12 5 0 7 3 10 6 6 4 -3 13 1 21 9 9
8 22 13 30 9 11 -4 13 -1 9 10 -3 9 -2 14 3 11 5 -3 14 1 21 9 7 8 21 15 30
15 10 0 21 6 23 13 4 9 6 9 6 0 1 -7 5 -13 11 -13 5 0 7 6 4 14 -7 17 63 56
86 48 8 -2 12 -1 8 3 -13 14 92 81 106 68 3 -4 6 0 6 7 0 9 6 8 20 -5 11 -10
20 -13 20 -7 0 7 -5 12 -10 12 -7 0 -7 6 0 20 6 11 19 20 30 20 10 0 22 5 25
10 10 16 26 11 23 -7 -2 -11 4 -18 17 -20 15 -2 16 -1 5 5 -8 4 -15 15 -15 25
0 24 25 38 47 26 12 -6 18 -6 18 1 0 5 -5 10 -12 10 -20 0 14 29 38 33 12 1
29 11 38 20 10 9 24 17 32 17 8 0 14 5 14 11 0 5 5 7 10 4 6 -3 10 -1 10 4 0
6 5 11 11 11 5 0 7 -4 4 -10 -3 -5 -1 -18 5 -27 10 -16 10 -15 5 4 -7 27 35
76 59 67 9 -3 13 -10 10 -15 -3 -5 2 -6 11 -3 14 6 14 8 -2 20 -17 13 -17 13
0 14 9 0 17 5 17 11 0 6 7 8 16 5 8 -3 12 -2 9 4 -3 6 -1 11 4 11 6 1 16 2 21
3 6 0 14 6 18 11 4 6 18 16 31 23 19 11 22 11 16 0 -3 -7 1 -4 9 6 9 11 16 16
16 10 0 -5 5 -1 11 9 5 9 17 17 26 17 10 0 13 -6 9 -17 -5 -16 -5 -16 8 0 14
18 15 18 25 0 6 -10 11 -13 11 -7 0 15 -25 36 -33 27 -4 -3 -7 -1 -7 5 0 7 6
12 14 12 8 0 21 6 28 13 17 15 90 53 98 50 4 -1 7 3 8 10 1 12 4 1953 3 2088
l-1 65 -77 44 c-43 24 -80 46 -83 49 -3 3 -29 17 -57 31 -29 14 -53 29 -53 33
0 5 -4 5 -10 2 -5 -3 -10 -2 -10 3 0 6 -20 19 -44 31 -25 11 -47 25 -51 31 -3
6 -11 8 -16 5 -5 -4 -9 -1 -9 4 0 6 -4 11 -9 11 -4 0 -47 23 -95 50 -48 28
-91 50 -96 50 -6 0 -10 3 -10 8 0 4 -10 12 -23 18 -37 17 -112 59 -117 65 -3
3 -20 12 -37 20 -18 8 -33 18 -33 22 0 5 -4 5 -10 2 -5 -3 -10 -2 -10 3 0 6
-19 19 -42 31 -24 11 -65 33 -93 49 -27 16 -68 39 -90 52 -22 12 -81 46 -132
76 -51 30 -97 54 -102 54 -6 0 -11 5 -11 10 0 6 -6 10 -14 10 -7 0 -19 7 -26
15 -6 8 -15 14 -18 12 -4 -1 -41 18 -82 42 -41 24 -88 51 -105 60 -16 9 -31
19 -33 24 -2 4 -9 7 -17 7 -7 0 -18 7 -25 15 -7 9 -15 13 -18 11 -3 -3 -17 3
-32 14 -16 11 -33 20 -39 20 -6 0 -11 5 -11 10 0 6 -4 10 -9 10 -6 0 -37 16
-70 35 -32 19 -61 35 -63 34 -2 -1 -13 -6 -24 -13z m-1704 -3302 c0 -8 -5 -12
-10 -9 -6 4 -8 11 -5 16 9 14 15 11 15 -7z m330 -228 c0 -3 -4 -8 -10 -11 -5
-3 -10 -1 -10 4 0 6 5 11 10 11 6 0 10 -2 10 -4z m184 -68 c-5 -8 -2 -9 9 -5
10 3 17 2 17 -3 0 -14 -18 -22 -25 -11 -3 6 -12 8 -20 4 -8 -3 -15 -1 -15 5 0
6 6 13 13 15 21 9 28 7 21 -5z m396 -248 c8 -5 11 -10 5 -10 -5 0 -17 5 -25
10 -8 5 -10 10 -5 10 6 0 17 -5 25 -10z m70 -16 c0 -8 -5 -12 -10 -9 -6 4 -8
11 -5 16 9 14 15 11 15 -7z"/>
<path d="M1270 4198 c0 -4 4 -8 9 -8 6 0 12 4 15 8 3 5 -1 9 -9 9 -8 0 -15 -4
-15 -9z"/>
<path d="M1276 4162 c-3 -5 1 -9 9 -9 8 0 12 4 9 9 -3 4 -7 8 -9 8 -2 0 -6 -4
-9 -8z"/>
<path d="M1266 4058 c3 -5 10 -6 15 -3 13 9 11 12 -6 12 -8 0 -12 -4 -9 -9z"/>
<path d="M1215 4040 c3 -5 8 -10 11 -10 2 0 4 5 4 10 0 6 -5 10 -11 10 -5 0
-7 -4 -4 -10z"/>
<path d="M1290 4019 c0 -5 5 -7 10 -4 6 3 10 8 10 11 0 2 -4 4 -10 4 -5 0 -10
-5 -10 -11z"/>
<path d="M1255 3989 c-4 -6 -5 -12 -2 -15 2 -3 7 2 10 11 7 17 1 20 -8 4z"/>
<path d="M1275 3970 c-3 -6 1 -7 9 -4 18 7 21 14 7 14 -6 0 -13 -4 -16 -10z"/>
<path d="M1166 3942 c-3 -5 1 -9 9 -9 8 0 12 4 9 9 -3 4 -7 8 -9 8 -2 0 -6 -4
-9 -8z"/>
<path d="M1266 3938 c3 -4 11 -5 19 -1 21 7 19 12 -4 10 -11 0 -18 -5 -15 -9z"/>
<path d="M1255 3910 c-3 -6 1 -7 9 -4 18 7 21 14 7 14 -6 0 -13 -4 -16 -10z"/>
<path d="M1216 3882 c-3 -5 1 -9 9 -9 8 0 12 4 9 9 -3 4 -7 8 -9 8 -2 0 -6 -4
-9 -8z"/>
<path d="M1278 3883 c7 -3 16 -2 19 1 4 3 -2 6 -13 5 -11 0 -14 -3 -6 -6z"/>
<path d="M1065 3840 c-3 -6 1 -7 9 -4 18 7 21 14 7 14 -6 0 -13 -4 -16 -10z"/>
<path d="M1179 3828 c-5 -18 -6 -38 -1 -34 7 8 12 36 6 36 -2 0 -4 -1 -5 -2z"/>
<path d="M1235 3821 c-3 -5 -2 -12 3 -15 5 -3 9 1 9 9 0 17 -3 19 -12 6z"/>
<path d="M1268 3823 c6 -2 18 -2 25 0 6 3 1 5 -13 5 -14 0 -19 -2 -12 -5z"/>
<path d="M1235 3780 c3 -5 8 -10 11 -10 2 0 4 5 4 10 0 6 -5 10 -11 10 -5 0
-7 -4 -4 -10z"/>
<path d="M1153 3765 c0 -8 4 -12 9 -9 5 3 6 10 3 15 -9 13 -12 11 -12 -6z"/>
<path d="M1268 3733 c6 -2 18 -2 25 0 6 3 1 5 -13 5 -14 0 -19 -2 -12 -5z"/>
<path d="M1076 3718 c3 -5 10 -6 15 -3 13 9 11 12 -6 12 -8 0 -12 -4 -9 -9z"/>
<path d="M1193 3715 c0 -8 4 -12 9 -9 5 3 6 10 3 15 -9 13 -12 11 -12 -6z"/>
<path d="M1277 3709 c7 -7 15 -10 18 -7 3 3 -2 9 -12 12 -14 6 -15 5 -6 -5z"/>
<path d="M1200 3686 c0 -2 8 -10 18 -17 15 -13 16 -12 3 4 -13 16 -21 21 -21
13z"/>
<path d="M1276 3658 c5 -8 1 -9 -12 -4 -14 5 -16 4 -7 -5 6 -6 16 -8 22 -5 14
9 14 26 0 26 -5 0 -7 -5 -3 -12z"/>
<path d="M1105 3640 c-3 -6 1 -7 9 -4 18 7 21 14 7 14 -6 0 -13 -4 -16 -10z"/>
<path d="M1277 3619 c7 -7 15 -10 18 -7 3 3 -2 9 -12 12 -14 6 -15 5 -6 -5z"/>
<path d="M1239 3588 c-1 -2 -2 -15 -3 -29 0 -14 -8 -34 -15 -45 -14 -18 -14
-18 4 -1 11 9 20 31 21 47 1 25 -2 38 -7 28z"/>
<path d="M1270 3583 c5 -2 8 -9 4 -14 -3 -5 0 -9 6 -9 15 0 7 23 -8 26 -7 1
-8 0 -2 -3z"/>
<path d="M1275 3520 c-3 -6 1 -7 9 -4 18 7 21 14 7 14 -6 0 -13 -4 -16 -10z"/>
<path d="M1268 3493 c6 -2 10 -9 6 -14 -3 -5 -2 -9 3 -8 21 4 34 -2 27 -13 -5
-7 -3 -8 6 -3 10 6 7 12 -11 26 -13 10 -28 18 -34 18 -5 0 -4 -3 3 -6z"/>
<path d="M1276 3443 c-6 -14 -5 -15 5 -6 7 7 10 15 7 18 -3 3 -9 -2 -12 -12z"/>
<path d="M1290 3419 c0 -5 5 -7 10 -4 6 3 10 8 10 11 0 2 -4 4 -10 4 -5 0 -10
-5 -10 -11z"/>
<path d="M1210 3400 c0 -5 5 -10 11 -10 5 0 7 5 4 10 -3 6 -8 10 -11 10 -2 0
-4 -4 -4 -10z"/>
<path d="M1276 3397 c3 -10 9 -15 12 -12 3 3 0 11 -7 18 -10 9 -11 8 -5 -6z"/>
<path d="M1175 3380 c3 -5 8 -10 11 -10 2 0 4 5 4 10 0 6 -5 10 -11 10 -5 0
-7 -4 -4 -10z"/>
<path d="M1250 3360 c0 -5 5 -10 10 -10 6 0 10 5 10 10 0 6 -4 10 -10 10 -5 0
-10 -4 -10 -10z"/>
<path d="M1255 3310 c-4 -6 1 -7 11 -3 14 5 16 3 10 -13 -5 -14 -4 -16 5 -7
12 12 5 33 -11 33 -5 0 -12 -4 -15 -10z"/>
<path d="M1175 3300 c3 -5 8 -10 11 -10 2 0 4 5 4 10 0 6 -5 10 -11 10 -5 0
-7 -4 -4 -10z"/>
<path d="M1204 3278 l-19 -23 23 19 c21 18 27 26 19 26 -2 0 -12 -10 -23 -22z"/>
<path d="M1275 3250 c-3 -6 1 -7 9 -4 18 7 21 14 7 14 -6 0 -13 -4 -16 -10z"/>
<path d="M1268 3223 c6 -2 18 -2 25 0 6 3 1 5 -13 5 -14 0 -19 -2 -12 -5z"/>
<path d="M1230 3195 c10 -11 9 -33 -2 -51 -4 -6 -2 -11 5 -11 8 0 13 15 13 37
0 24 -4 37 -13 37 -8 0 -9 -4 -3 -12z"/>
<path d="M1286 3195 c-9 -26 -7 -32 5 -12 6 10 9 21 6 23 -2 3 -7 -2 -11 -11z"/>
<path d="M1195 3180 c3 -5 8 -10 11 -10 2 0 4 5 4 10 0 6 -5 10 -11 10 -5 0
-7 -4 -4 -10z"/>
<path d="M1295 3160 c-3 -5 -1 -10 4 -10 6 0 11 5 11 10 0 6 -2 10 -4 10 -3 0
-8 -4 -11 -10z"/>
<path d="M1175 3140 c-3 -5 -1 -10 4 -10 6 0 11 5 11 10 0 6 -2 10 -4 10 -3 0
-8 -4 -11 -10z"/>
<path d="M1278 3133 c12 -2 20 -9 17 -14 -4 -5 -1 -9 5 -9 23 0 3 25 -21 27
-22 1 -23 1 -1 -4z"/>
<path d="M1255 3070 c-3 -6 1 -7 9 -4 18 7 21 14 7 14 -6 0 -13 -4 -16 -10z"/>
<path d="M1173 3055 c0 -8 4 -12 9 -9 5 3 6 10 3 15 -9 13 -12 11 -12 -6z"/>
<path d="M1277 3049 c7 -7 15 -10 18 -7 3 3 -2 9 -12 12 -14 6 -15 5 -6 -5z"/>
<path d="M1233 3025 c0 -8 4 -12 9 -9 5 3 6 10 3 15 -9 13 -12 11 -12 -6z"/>
<path d="M1295 2990 c-3 -5 -11 -8 -18 -6 -7 1 -9 1 -4 -1 4 -3 4 -10 0 -16
-3 -7 -3 -9 2 -5 4 4 15 2 24 -5 14 -10 14 -10 4 4 -10 12 -10 18 -1 27 7 7 9
12 6 12 -4 0 -9 -4 -13 -10z"/>
<path d="M1239 2960 c-1 -5 -2 -18 -3 -27 -1 -10 -4 -23 -8 -29 -4 -6 -2 -11
5 -11 7 0 13 16 13 39 1 34 -4 53 -7 28z"/>
<path d="M1155 2929 c-4 -6 -5 -12 -2 -15 2 -3 7 2 10 11 7 17 1 20 -8 4z"/>
<path d="M1275 2920 c-3 -6 1 -7 9 -4 18 7 21 14 7 14 -6 0 -13 -4 -16 -10z"/>
<path d="M1260 2896 c0 -2 7 -7 16 -10 8 -3 12 -2 9 4 -6 10 -25 14 -25 6z"/>
<path d="M1239 2868 c-1 -2 -2 -15 -3 -29 0 -14 -8 -34 -16 -45 -14 -17 -13
-18 1 -7 9 7 18 11 20 8 3 -2 5 14 5 35 0 34 -2 48 -7 38z"/>
<path d="M1268 2863 c6 -2 18 -2 25 0 6 3 1 5 -13 5 -14 0 -19 -2 -12 -5z"/>
<path d="M1115 2831 c-3 -5 -2 -12 3 -15 5 -3 9 1 9 9 0 17 -3 19 -12 6z"/>
<path d="M1268 2773 c6 -2 18 -2 25 0 6 3 1 5 -13 5 -14 0 -19 -2 -12 -5z"/>
<path d="M1277 2749 c7 -7 15 -10 18 -7 3 3 -2 9 -12 12 -14 6 -15 5 -6 -5z"/>
<path d="M1205 2720 c10 -11 20 -20 23 -20 3 0 -3 9 -13 20 -10 11 -20 20 -23
20 -3 0 3 -9 13 -20z"/>
<path d="M1290 2721 c0 -7 -4 -9 -10 -6 -6 4 -7 -1 -3 -11 5 -14 3 -16 -11
-11 -10 4 -15 3 -11 -3 3 -6 10 -10 15 -10 12 0 33 40 26 48 -3 3 -6 0 -6 -7z"/>
<path d="M1210 2680 c0 -5 5 -10 11 -10 5 0 7 5 4 10 -3 6 -8 10 -11 10 -2 0
-4 -4 -4 -10z"/>
<path d="M1295 2680 c-3 -5 -1 -10 4 -10 6 0 11 5 11 10 0 6 -2 10 -4 10 -3 0
-8 -4 -11 -10z"/>
<path d="M1290 2653 c5 -2 8 -9 4 -14 -3 -5 0 -9 6 -9 15 0 7 23 -8 26 -7 1
-8 0 -2 -3z"/>
<path d="M1109 2603 c-13 -16 -12 -17 4 -4 9 7 17 15 17 17 0 8 -8 3 -21 -13z"/>
<path d="M1239 2603 c0 -5 -2 -16 -4 -26 -2 -11 -1 -16 3 -13 8 8 14 46 7 46
-3 0 -5 -3 -6 -7z"/>
<path d="M1274 2558 c-4 -6 -3 -8 4 -4 5 3 13 0 15 -6 3 -8 6 -6 6 5 1 19 -14
23 -25 5z"/>
<path d="M1255 2543 c3 -3 0 -12 -5 -18 -7 -9 -6 -14 3 -18 14 -5 17 28 4 38
-4 3 -5 2 -2 -2z"/>
<path d="M1195 2521 c-3 -5 -2 -12 3 -15 5 -3 9 1 9 9 0 17 -3 19 -12 6z"/>
<path d="M1270 2478 c0 -6 3 -8 7 -5 3 4 12 -1 20 -11 13 -15 13 -15 3 6 -11
23 -30 30 -30 10z"/>
<path d="M1175 2460 c-3 -5 -1 -10 4 -10 6 0 11 5 11 10 0 6 -2 10 -4 10 -3 0
-8 -4 -11 -10z"/>
<path d="M1255 2463 c3 -3 -1 -13 -8 -21 -8 -11 -8 -14 0 -9 6 4 14 1 17 -5 2
-7 4 -3 2 9 -1 12 -5 25 -9 28 -4 3 -5 2 -2 -2z"/>
<path d="M1290 2432 c6 -13 14 -21 18 -18 3 4 -2 14 -12 24 -18 16 -18 16 -6
-6z"/>
<path d="M1270 2400 c0 -6 4 -9 9 -6 5 4 12 1 14 -4 3 -6 4 -5 3 2 -3 15 -26
23 -26 8z"/>
<path d="M1260 2371 c0 -7 -5 -9 -12 -5 -7 5 -8 3 -3 -5 5 -9 10 -10 18 -2 6
6 8 14 4 18 -4 3 -7 1 -7 -6z"/>
<path d="M1270 2318 c0 -6 3 -8 7 -5 3 4 12 -1 20 -11 13 -15 13 -15 3 6 -11
23 -30 30 -30 10z"/>
<path d="M1260 2291 c0 -7 -5 -9 -12 -5 -7 5 -8 3 -3 -5 5 -9 10 -10 18 -2 6
6 8 14 4 18 -4 3 -7 1 -7 -6z"/>
<path d="M1076 2282 c-3 -5 1 -9 9 -9 8 0 12 4 9 9 -3 4 -7 8 -9 8 -2 0 -6 -4
-9 -8z"/>
<path d="M1290 2272 c6 -13 14 -21 18 -18 3 4 -2 14 -12 24 -18 16 -18 16 -6
-6z"/>
<path d="M1267 2244 c-4 -4 -7 -12 -7 -18 0 -6 5 -4 10 4 9 13 11 13 21 0 9
-12 10 -12 7 -1 -5 17 -21 25 -31 15z"/>
<path d="M1231 2227 c-8 -10 -7 -14 2 -14 8 0 14 6 14 14 0 7 -1 13 -2 13 -2
0 -8 -6 -14 -13z"/>
<path d="M1176 2218 c3 -4 11 -5 19 -1 21 7 19 12 -4 10 -11 0 -18 -5 -15 -9z"/>
<path d="M1175 2180 c3 -5 8 -10 11 -10 2 0 4 5 4 10 0 6 -5 10 -11 10 -5 0
-7 -4 -4 -10z"/>
<path d="M1273 2173 c0 -12 3 -20 6 -18 2 3 10 -3 18 -13 13 -16 13 -15 4 3
-22 43 -30 51 -28 28z"/>
<path d="M1260 2131 c0 -7 -5 -9 -12 -5 -7 5 -8 3 -3 -5 5 -9 10 -10 18 -2 6
6 8 14 4 18 -4 3 -7 1 -7 -6z"/>
<path d="M1276 2113 c-6 -14 -5 -15 5 -6 7 7 10 15 7 18 -3 3 -9 -2 -12 -12z"/>
<path d="M1176 2102 c-3 -4 4 -9 15 -9 23 -2 25 3 4 10 -8 4 -16 3 -19 -1z"/>
<path d="M1335 2080 c3 -16 0 -20 -10 -16 -8 3 -15 1 -15 -4 0 -15 26 -12 39
4 9 10 8 16 -3 26 -13 10 -15 8 -11 -10z"/>
<path d="M1190 2059 c0 -5 5 -7 10 -4 6 3 10 8 10 11 0 2 -4 4 -10 4 -5 0 -10
-5 -10 -11z"/>
<path d="M1273 2047 c0 -8 6 -14 14 -14 9 0 10 4 2 14 -6 7 -12 13 -14 13 -1
0 -2 -6 -2 -13z"/>
<path d="M1340 2039 c-12 -9 -12 -10 3 -5 15 5 17 2 12 -17 -5 -20 -5 -20 6
-4 14 23 0 40 -21 26z"/>
<path d="M1235 2020 c-3 -5 -1 -10 4 -10 6 0 11 5 11 10 0 6 -2 10 -4 10 -3 0
-8 -4 -11 -10z"/>
<path d="M1315 2020 c6 -10 4 -12 -11 -6 -15 6 -17 5 -6 -5 9 -9 15 -10 23 -2
8 8 7 13 -2 18 -8 6 -10 4 -4 -5z"/>
<path d="M5010 2019 c0 -5 5 -7 10 -4 6 3 10 8 10 11 0 2 -4 4 -10 4 -5 0 -10
-5 -10 -11z"/>
<path d="M1310 1981 c0 -6 4 -13 10 -16 6 -3 7 1 4 9 -7 18 -14 21 -14 7z"/>
<path d="M4899 1988 c-1 -2 -3 -13 -4 -26 -2 -21 -1 -22 16 -6 24 21 25 31 2
13 -15 -12 -16 -12 -10 4 5 13 1 26 -4 15z"/>
<path d="M1396 1965 c4 -8 8 -15 10 -15 2 0 4 7 4 15 0 8 -4 15 -10 15 -5 0
-7 -7 -4 -15z"/>
<path d="M1457 1973 c-10 -10 -8 -23 4 -23 5 0 7 5 3 11 -4 8 1 9 17 4 19 -5
21 -4 9 4 -18 13 -24 13 -33 4z"/>
<path d="M1360 1956 c0 -2 7 -7 16 -10 8 -3 12 -2 9 4 -6 10 -25 14 -25 6z"/>
<path d="M4831 1951 c-8 -5 -15 -19 -16 -30 -1 -11 2 -18 7 -15 5 4 7 13 4 21
-5 11 -2 13 9 9 11 -4 14 -2 9 6 -5 8 -2 9 10 5 10 -4 15 -3 11 3 -8 12 -16
12 -34 1z"/>
<path d="M1340 1946 c0 -2 8 -10 18 -17 15 -13 16 -12 3 4 -13 16 -21 21 -21
13z"/>
<path d="M1414 1919 c0 -12 4 -15 10 -9 6 6 14 3 23 -8 13 -15 13 -15 4 4 -14
29 -37 37 -37 13z"/>
<path d="M1466 1923 c-6 -14 -5 -15 5 -6 7 7 10 15 7 18 -3 3 -9 -2 -12 -12z"/>
<path d="M1270 1918 c0 -4 4 -8 9 -8 6 0 12 4 15 8 3 5 -1 9 -9 9 -8 0 -15 -4
-15 -9z"/>
<path d="M1315 1921 c-3 -5 -2 -12 3 -15 5 -3 9 1 9 9 0 17 -3 19 -12 6z"/>
<path d="M1510 1920 c0 -5 5 -10 10 -10 6 0 10 5 10 10 0 6 -4 10 -10 10 -5 0
-10 -4 -10 -10z"/>
<path d="M4780 1920 c0 -5 5 -10 10 -10 6 0 10 5 10 10 0 6 -4 10 -10 10 -5 0
-10 -4 -10 -10z"/>
<path d="M4870 1921 c0 -6 4 -13 10 -16 6 -3 7 1 4 9 -7 18 -14 21 -14 7z"/>
<path d="M1346 1902 c-2 -4 4 -8 14 -8 10 0 16 4 14 8 -3 4 -9 8 -14 8 -5 0
-11 -4 -14 -8z"/>
<path d="M1496 1895 c7 -18 6 -19 -12 -5 -18 14 -18 14 -5 -3 10 -12 17 -15
25 -7 7 7 6 14 -3 23 -10 10 -11 8 -5 -8z"/>
<path d="M1526 1883 l-17 -28 19 22 c11 12 23 19 27 15 5 -4 5 -1 1 6 -10 17
-11 16 -30 -15z"/>
<path d="M4750 1900 c0 -5 5 -10 10 -10 6 0 10 5 10 10 0 6 -4 10 -10 10 -5 0
-10 -4 -10 -10z"/>
<path d="M4836 1893 c-6 -14 -5 -15 5 -6 7 7 10 15 7 18 -3 3 -9 -2 -12 -12z"/>
<path d="M1270 1886 c0 -2 7 -7 16 -10 8 -3 12 -2 9 4 -6 10 -25 14 -25 6z"/>
<path d="M1433 1883 c4 -3 1 -13 -6 -22 -11 -14 -10 -14 5 -2 16 12 16 31 1
31 -4 0 -3 -3 0 -7z"/>
<path d="M4679 1873 c-10 -11 -10 -14 -1 -9 6 4 12 2 12 -3 0 -6 5 -11 11 -11
8 0 9 4 0 13 -6 8 -8 17 -4 20 3 4 4 7 1 7 -3 0 -12 -8 -19 -17z"/>
<path d="M1595 1870 c3 -5 8 -10 11 -10 2 0 4 5 4 10 0 6 -5 10 -11 10 -5 0
-7 -4 -4 -10z"/>
<path d="M4756 1871 c-3 -5 1 -11 9 -14 9 -4 12 -1 8 9 -6 16 -10 17 -17 5z"/>
<path d="M4793 1865 c0 -8 4 -12 9 -9 5 3 6 10 3 15 -9 13 -12 11 -12 -6z"/>
<path d="M1561 1850 c14 -31 19 -36 19 -24 0 6 -7 19 -16 30 -14 18 -14 18 -3
-6z"/>
<path d="M4827 1859 c7 -7 15 -10 18 -7 3 3 -2 9 -12 12 -14 6 -15 5 -6 -5z"/>
<path d="M1440 1846 c0 -2 8 -10 18 -17 15 -13 16 -12 3 4 -13 16 -21 21 -21
13z"/>
<path d="M4660 1842 c0 -4 9 -13 20 -20 19 -12 20 -11 8 8 -13 20 -28 27 -28
12z"/>
<path d="M1597 1829 c7 -7 15 -10 18 -7 3 3 -2 9 -12 12 -14 6 -15 5 -6 -5z"/>
<path d="M1510 1818 c0 -4 4 -8 9 -8 6 0 12 4 15 8 3 5 -1 9 -9 9 -8 0 -15 -4
-15 -9z"/>
<path d="M4595 1819 l-20 -9 20 3 c11 1 26 -4 33 -13 11 -13 11 -11 2 8 -6 12
-12 22 -13 21 -1 0 -11 -5 -22 -10z"/>
<path d="M4856 1822 c-3 -5 1 -9 9 -9 8 0 12 4 9 9 -3 4 -7 8 -9 8 -2 0 -6 -4
-9 -8z"/>
<path d="M4710 1816 c0 -2 8 -10 18 -17 15 -13 16 -12 3 4 -13 16 -21 21 -21
13z"/>
<path d="M1591 1807 c2 -2 11 -8 20 -15 12 -9 16 -9 16 1 0 7 -9 14 -20 14
-11 1 -18 1 -16 0z"/>
<path d="M1645 1800 c-3 -6 1 -7 9 -4 18 7 21 14 7 14 -6 0 -13 -4 -16 -10z"/>
<path d="M4560 1806 c0 -3 9 -10 20 -16 11 -6 20 -8 20 -6 0 3 -9 10 -20 16
-11 6 -20 8 -20 6z"/>
<path d="M4655 1799 c-4 -6 -4 -13 -1 -16 3 -4 6 -1 6 7 0 10 4 10 18 -1 15
-13 16 -12 3 4 -16 20 -18 20 -26 6z"/>
<path d="M1333 1775 c0 -8 4 -12 9 -9 5 3 6 10 3 15 -9 13 -12 11 -12 -6z"/>
<path d="M1678 1783 c7 -3 16 -2 19 1 4 3 -2 6 -13 5 -11 0 -14 -3 -6 -6z"/>
<path d="M1715 1780 c3 -5 8 -10 11 -10 2 0 4 5 4 10 0 6 -5 10 -11 10 -5 0
-7 -4 -4 -10z"/>
<path d="M1656 1767 c3 -10 9 -15 12 -12 3 3 0 11 -7 18 -10 9 -11 8 -5 -6z"/>
<path d="M4502 1760 c7 -10 14 -18 15 -16 6 6 -9 36 -18 36 -5 0 -4 -9 3 -20z"/>
<path d="M1760 1750 c6 -11 12 -20 14 -20 2 0 2 9 -1 20 -3 11 -9 20 -15 20
-5 0 -4 -9 2 -20z"/>
<path d="M4535 1760 c-3 -6 1 -7 9 -4 18 7 21 14 7 14 -6 0 -13 -4 -16 -10z"/>
<path d="M4577 1751 c-10 -14 -10 -14 4 -4 9 7 18 10 21 7 3 -3 8 -1 12 4 9
16 -24 9 -37 -7z"/>
<path d="M4873 1755 c0 -8 4 -12 9 -9 5 3 6 10 3 15 -9 13 -12 11 -12 -6z"/>
<path d="M1629 1743 c-13 -16 -12 -17 4 -4 9 7 17 15 17 17 0 8 -8 3 -21 -13z"/>
<path d="M1830 1740 c0 -6 4 -9 9 -5 5 3 12 -5 14 -17 5 -22 5 -21 4 1 -2 24
-27 44 -27 21z"/>
<path d="M1880 1733 c8 -3 23 -12 33 -21 9 -8 17 -12 17 -7 0 12 -33 34 -50
34 -13 -1 -13 -1 0 -6z"/>
<path d="M4595 1730 c-4 -6 -11 -7 -17 -4 -7 4 -8 2 -4 -5 6 -9 11 -9 22 0 14
11 18 19 10 19 -3 0 -8 -5 -11 -10z"/>
<path d="M1716 1721 c-3 -4 6 -7 19 -7 14 0 22 2 19 5 -8 8 -34 10 -38 2z"/>
<path d="M1779 1719 c-12 -9 -12 -10 1 -6 8 2 23 0 33 -5 9 -5 17 -6 17 -4 0
13 -37 24 -51 15z"/>
<path d="M4490 1720 c0 -5 5 -10 10 -10 6 0 10 5 10 10 0 6 -4 10 -10 10 -5 0
-10 -4 -10 -10z"/>
<path d="M1875 1710 c-4 -6 -4 -14 -1 -17 3 -4 6 -1 6 6 0 7 4 10 9 6 6 -3 8
-14 6 -25 -3 -14 1 -17 13 -13 10 4 12 8 4 11 -7 2 -10 7 -7 12 3 4 -2 13 -9
19 -10 9 -16 9 -21 1z"/>
<path d="M4466 1703 c-6 -14 -5 -15 5 -6 7 7 10 15 7 18 -3 3 -9 -2 -12 -12z"/>
<path d="M1599 1693 c-13 -16 -12 -17 4 -4 9 7 17 15 17 17 0 8 -8 3 -21 -13z"/>
<path d="M1635 1700 c-3 -5 -1 -10 4 -10 6 0 11 5 11 10 0 6 -2 10 -4 10 -3 0
-8 -4 -11 -10z"/>
<path d="M4654 1696 c1 -8 5 -18 8 -22 4 -3 5 1 4 10 -1 8 -5 18 -8 22 -4 3
-5 -1 -4 -10z"/>
<path d="M1556 1687 c3 -10 9 -15 12 -12 3 3 0 11 -7 18 -10 9 -11 8 -5 -6z"/>
<path d="M1675 1691 c-3 -5 -2 -12 3 -15 5 -3 9 1 9 9 0 17 -3 19 -12 6z"/>
<path d="M4357 1680 c8 -30 21 -34 15 -5 -2 14 -8 25 -12 25 -5 0 -6 -9 -3
-20z"/>
<path d="M4385 1689 c-4 -6 -4 -13 -1 -16 3 -4 6 -1 6 6 0 7 5 9 12 5 7 -4 8
-3 4 4 -9 15 -13 15 -21 1z"/>
<path d="M1930 1680 c0 -5 5 -10 10 -10 6 0 10 5 10 10 0 6 -4 10 -10 10 -5 0
-10 -4 -10 -10z"/>
<path d="M2040 1681 c0 -6 5 -11 11 -11 5 0 7 -5 4 -10 -4 -6 -10 -8 -15 -5
-4 3 -19 -4 -31 -16 l-24 -20 26 15 c14 9 28 14 31 11 3 -3 10 1 17 8 9 11 8
17 -4 27 -10 9 -15 9 -15 1z"/>
<path d="M1799 1678 c-4 -12 -5 -57 0 -53 6 6 10 55 4 55 -1 0 -3 -1 -4 -2z"/>
<path d="M1759 1653 c-13 -16 -12 -17 4 -4 9 7 17 15 17 17 0 8 -8 3 -21 -13z"/>
<path d="M2077 1656 c-9 -22 23 -52 35 -33 4 6 10 8 14 4 4 -3 2 -12 -4 -20
-8 -9 -8 -17 0 -27 8 -13 9 -12 5 2 -8 23 4 31 17 12 7 -9 18 -12 28 -9 14 6
15 10 5 25 -8 13 -15 16 -23 9 -9 -7 -14 -4 -19 11 -5 16 -10 19 -18 11 -18
-18 -31 -13 -16 6 8 9 9 14 2 10 -6 -4 -13 -2 -15 5 -3 7 -7 5 -11 -6z m93
-56 c0 -5 -4 -10 -10 -10 -5 0 -10 5 -10 10 0 6 5 10 10 10 6 0 10 -4 10 -10z"/>
<path d="M4433 1653 c0 -9 4 -10 14 -2 7 6 13 12 13 14 0 1 -6 2 -13 2 -8 0
-14 -6 -14 -14z"/>
<path d="M4616 1658 c3 -5 10 -6 15 -3 13 9 11 12 -6 12 -8 0 -12 -4 -9 -9z"/>
<path d="M1885 1640 c10 -11 20 -20 23 -20 3 0 -3 9 -13 20 -10 11 -20 20 -23
20 -3 0 3 -9 13 -20z"/>
<path d="M4280 1650 c-8 -5 -12 -12 -9 -15 4 -3 12 1 19 10 14 17 11 19 -10 5z"/>
<path d="M4515 1649 c-4 -6 -5 -12 -2 -15 2 -3 7 2 10 11 7 17 1 20 -8 4z"/>
<path d="M4322 1636 c7 -8 15 -12 17 -11 5 6 -10 25 -20 25 -5 0 -4 -6 3 -14z"/>
<path d="M4390 1638 c0 -6 3 -8 7 -5 3 4 13 1 22 -6 14 -11 14 -10 2 6 -15 20
-31 22 -31 5z"/>
<path d="M1920 1636 c0 -2 7 -7 16 -10 8 -3 12 -2 9 4 -6 10 -25 14 -25 6z"/>
<path d="M1550 1619 c0 -5 5 -7 10 -4 6 3 10 8 10 11 0 2 -4 4 -10 4 -5 0 -10
-5 -10 -11z"/>
<path d="M1695 1620 c3 -5 8 -10 11 -10 2 0 4 5 4 10 0 6 -5 10 -11 10 -5 0
-7 -4 -4 -10z"/>
<path d="M1756 1622 c-3 -5 1 -9 9 -9 8 0 12 4 9 9 -3 4 -7 8 -9 8 -2 0 -6 -4
-9 -8z"/>
<path d="M2019 1628 c-4 -15 -6 -50 -3 -40 3 6 11 9 17 5 8 -4 7 -1 -1 9 -10
13 -10 17 0 21 10 4 10 6 1 6 -7 1 -13 0 -14 -1z"/>
<path d="M2050 1620 c0 -5 4 -10 9 -10 5 0 11 -9 14 -21 3 -12 10 -18 15 -15
6 3 13 1 15 -4 3 -6 4 -5 3 2 -2 7 -9 12 -16 10 -7 -2 -10 3 -7 11 3 7 -4 19
-14 25 -12 8 -19 8 -19 2z"/>
<path d="M4229 1618 c-1 -7 -1 -19 0 -27 2 -8 -2 -10 -10 -5 -8 4 -10 3 -5 -5
10 -15 27 -4 24 16 -2 9 3 18 11 21 9 3 11 0 6 -8 -5 -9 -4 -11 4 -6 6 4 9 12
6 17 -9 13 -35 11 -36 -3z"/>
<path d="M4354 1613 c2 -10 -2 -25 -8 -33 -9 -13 -9 -13 6 -2 16 12 18 35 6
48 -4 3 -5 -2 -4 -13z"/>
<path d="M1970 1606 c0 -8 4 -17 9 -20 5 -4 7 3 4 14 -6 23 -13 26 -13 6z"/>
<path d="M1806 1598 c3 -5 10 -6 15 -3 13 9 11 12 -6 12 -8 0 -12 -4 -9 -9z"/>
<path d="M1896 1598 c3 -4 11 -5 19 -1 21 7 19 12 -4 10 -11 0 -18 -5 -15 -9z"/>
<path d="M4274 1598 c-4 -6 -3 -8 4 -4 5 3 13 0 15 -6 3 -8 6 -6 6 5 1 19 -14
23 -25 5z"/>
<path d="M4510 1599 c0 -5 5 -7 10 -4 6 3 10 8 10 11 0 2 -4 4 -10 4 -5 0 -10
-5 -10 -11z"/>
<path d="M4670 1600 c0 -5 5 -10 11 -10 5 0 7 5 4 10 -3 6 -8 10 -11 10 -2 0
-4 -4 -4 -10z"/>
<path d="M1964 1562 c23 -26 23 -26 23 -7 0 8 -3 13 -5 10 -3 -3 -12 1 -21 7
-10 8 -9 4 3 -10z"/>
<path d="M4397 1573 c-10 -9 -9 -23 1 -23 5 0 9 7 9 15 0 17 -1 18 -10 8z"/>
<path d="M2013 1553 c0 -9 4 -10 14 -2 7 6 13 12 13 14 0 1 -6 2 -13 2 -8 0
-14 -6 -14 -14z"/>
<path d="M2050 1566 c0 -2 7 -7 16 -10 8 -3 12 -2 9 4 -6 10 -25 14 -25 6z"/>
<path d="M4120 1560 c-13 -8 -12 -10 3 -10 9 0 17 5 17 10 0 12 -1 12 -20 0z"/>
<path d="M4190 1560 c-13 -8 -12 -10 3 -10 9 0 17 5 17 10 0 12 -1 12 -20 0z"/>
<path d="M2121 1553 c-1 -17 16 -25 25 -12 4 7 3 9 -4 5 -5 -3 -13 0 -15 6 -4
9 -6 10 -6 1z"/>
<path d="M1770 1539 c0 -5 5 -7 10 -4 6 3 10 8 10 11 0 2 -4 4 -10 4 -5 0 -10
-5 -10 -11z"/>
<path d="M2039 1533 c-13 -16 -12 -17 4 -4 9 7 17 15 17 17 0 8 -8 3 -21 -13z"/>
<path d="M2230 1538 c0 -5 5 -6 10 -3 6 3 10 -3 10 -14 0 -11 5 -23 12 -27 8
-5 9 -2 5 10 -4 10 -4 23 0 29 4 7 9 2 13 -13 l6 -25 5 25 c5 23 2 25 -28 26
-18 0 -33 -3 -33 -8z"/>
<path d="M4150 1541 c0 -6 4 -12 8 -15 5 -3 9 1 9 9 0 8 -4 15 -9 15 -4 0 -8
-4 -8 -9z"/>
<path d="M4227 1539 c7 -7 15 -10 18 -7 3 3 -2 9 -12 12 -14 6 -15 5 -6 -5z"/>
<path d="M2090 1522 c0 -5 7 -9 15 -9 8 0 12 4 9 9 -3 4 -9 8 -15 8 -5 0 -9
-4 -9 -8z"/>
<path d="M4120 1526 c0 -2 7 -7 16 -10 8 -3 12 -2 9 4 -6 10 -25 14 -25 6z"/>
<path d="M4045 1510 c-16 -7 -17 -9 -3 -9 9 -1 20 4 23 9 7 11 7 11 -20 0z"/>
<path d="M4075 1500 c-4 -12 -11 -17 -18 -14 -7 4 -8 3 -4 -1 14 -16 36 -14
30 3 -4 10 -2 13 5 8 8 -5 10 -2 6 8 -8 21 -11 20 -19 -4z"/>
<path d="M2216 1497 c3 -10 9 -15 12 -12 3 3 0 11 -7 18 -10 9 -11 8 -5 -6z"/>
<path d="M2102 1484 c10 -10 20 -16 22 -13 3 3 -5 11 -17 18 -21 13 -21 12 -5
-5z"/>
<path d="M2188 1493 c6 -2 9 -10 6 -15 -4 -7 -2 -8 5 -4 13 9 5 26 -12 25 -9
0 -8 -2 1 -6z"/>
<path d="M4135 1490 c-4 -6 -10 -8 -15 -5 -5 3 -11 2 -14 -3 -2 -4 6 -8 18 -8
12 0 23 6 23 13 0 16 -4 16 -12 3z"/>
<path d="M1791 1473 c7 -12 15 -20 18 -17 3 2 -3 12 -13 22 -17 16 -18 16 -5
-5z"/>
<path d="M4026 1480 c5 -8 9 -21 10 -28 2 -8 5 -17 8 -20 4 -3 5 4 3 16 -2 12
-9 28 -17 35 -10 10 -11 9 -4 -3z"/>
<path d="M3976 1472 c-3 -5 8 -19 24 -31 20 -14 28 -16 24 -6 -3 8 -14 17 -25
20 -11 4 -17 11 -14 16 4 5 4 9 1 9 -3 0 -7 -4 -10 -8z"/>
<path d="M2075 1460 c3 -5 8 -10 11 -10 2 0 4 5 4 10 0 6 -5 10 -11 10 -5 0
-7 -4 -4 -10z"/>
<path d="M2230 1461 c0 -6 4 -13 10 -16 6 -3 7 1 4 9 -7 18 -14 21 -14 7z"/>
<path d="M4235 1459 c-3 -4 2 -6 10 -5 21 3 28 13 10 13 -9 0 -18 -4 -20 -8z"/>
<path d="M2173 1445 c0 -8 4 -15 9 -15 4 0 8 4 8 9 0 6 -4 12 -8 15 -5 3 -9
-1 -9 -9z"/>
<path d="M2344 1448 c3 -15 26 -23 26 -8 0 6 -4 9 -9 6 -5 -4 -12 -1 -14 4 -3
6 -4 5 -3 -2z"/>
<path d="M3953 1443 c4 -3 0 -11 -7 -17 -10 -8 -11 -17 -5 -31 9 -19 9 -19 5
2 -2 12 2 24 10 27 17 7 19 26 2 26 -6 0 -8 -3 -5 -7z"/>
<path d="M4340 1446 c0 -2 8 -10 18 -17 15 -13 16 -12 3 4 -13 16 -21 21 -21
13z"/>
<path d="M2380 1425 c-10 -12 -9 -16 6 -21 11 -4 22 -9 26 -11 4 -2 10 2 14 8
4 8 3 9 -4 5 -7 -4 -12 -3 -12 3 0 6 -8 7 -17 4 -16 -6 -16 -5 -4 10 7 9 11
17 8 17 -2 0 -10 -7 -17 -15z"/>
<path d="M2267 1419 c7 -7 15 -10 18 -7 3 3 -2 9 -12 12 -14 6 -15 5 -6 -5z"/>
<path d="M2335 1420 c5 -9 1 -10 -16 -6 -21 6 -22 6 -6 -5 13 -7 22 -8 29 -1
6 6 6 12 -3 17 -8 6 -10 4 -4 -5z"/>
<path d="M3974 1419 c-4 -7 -3 -9 4 -5 5 3 12 0 15 -6 2 -7 7 -10 11 -7 4 3 0
12 -8 18 -11 9 -16 9 -22 0z"/>
<path d="M4070 1419 c0 -5 5 -7 10 -4 6 3 10 8 10 11 0 2 -4 4 -10 4 -5 0 -10
-5 -10 -11z"/>
<path d="M3870 1405 c0 -8 4 -15 10 -15 5 0 7 7 4 15 -4 8 -8 15 -10 15 -2 0
-4 -7 -4 -15z"/>
<path d="M3910 1411 c0 -6 4 -13 10 -16 6 -3 7 1 4 9 -7 18 -14 21 -14 7z"/>
<path d="M2159 1399 c-7 -4 4 -6 24 -5 21 2 39 5 42 8 8 7 -54 5 -66 -3z"/>
<path d="M2546 1393 c5 -19 -28 -24 -47 -7 -10 9 -24 14 -31 11 -10 -4 -10 -6
0 -6 7 -1 18 -6 25 -11 7 -6 21 -18 32 -26 16 -13 17 -15 3 -10 -10 3 -18 1
-18 -4 0 -11 23 -13 34 -3 20 20 73 3 59 -20 -3 -6 5 -2 19 9 15 11 21 21 15
23 -7 2 -16 9 -20 15 -5 6 -5 0 -1 -14 6 -22 5 -23 -9 -11 -9 7 -14 17 -11 22
3 5 -2 6 -11 3 -9 -4 -15 -3 -14 2 3 20 -2 35 -10 30 -5 -4 -11 -3 -14 1 -2 5
-2 3 -1 -4z m21 -27 c0 -7 -7 -12 -16 -11 -9 2 -18 4 -21 4 -6 2 23 21 31 21
3 0 6 -6 6 -14z"/>
<path d="M2304 1382 c4 -3 14 -7 22 -8 9 -1 13 0 10 4 -4 3 -14 7 -22 8 -9 1
-13 0 -10 -4z"/>
<path d="M3808 1379 c-24 -14 -23 -26 5 -39 21 -11 21 -10 3 4 -20 16 -20 16
0 31 22 17 17 19 -8 4z"/>
<path d="M3842 1378 c-7 -7 -12 -17 -12 -22 0 -6 5 -3 11 8 9 15 13 16 20 5 6
-9 9 -10 9 -2 0 18 -15 24 -28 11z"/>
<path d="M4114 1382 c4 -3 14 -7 22 -8 9 -1 13 0 10 4 -4 3 -14 7 -22 8 -9 1
-13 0 -10 -4z"/>
<path d="M2215 1369 c-4 -6 -5 -12 -2 -15 2 -3 7 2 10 11 7 17 1 20 -8 4z"/>
<path d="M2457 1369 c7 -7 15 -10 18 -7 3 3 -2 9 -12 12 -14 6 -15 5 -6 -5z"/>
<path d="M2120 1360 c-9 -6 -10 -10 -3 -10 6 0 15 5 18 10 8 12 4 12 -15 0z"/>
<path d="M2150 1359 c0 -5 5 -7 10 -4 6 3 10 8 10 11 0 2 -4 4 -10 4 -5 0 -10
-5 -10 -11z"/>
<path d="M2396 1358 c3 -5 10 -6 15 -3 13 9 11 12 -6 12 -8 0 -12 -4 -9 -9z"/>
<path d="M3906 1361 c9 -9 34 -9 34 -1 0 5 -9 8 -20 7 -10 -1 -17 -3 -14 -6z"/>
<path d="M2313 1345 c0 -8 4 -12 9 -9 5 3 6 10 3 15 -9 13 -12 11 -12 -6z"/>
<path d="M2351 1333 c7 -12 15 -20 18 -17 3 2 -3 12 -13 22 -17 16 -18 16 -5
-5z"/>
<path d="M2387 1339 c7 -7 15 -10 18 -7 3 3 -2 9 -12 12 -14 6 -15 5 -6 -5z"/>
<path d="M4055 1341 c-3 -5 -2 -12 3 -15 5 -3 9 1 9 9 0 17 -3 19 -12 6z"/>
<path d="M2654 1329 c-8 -13 -2 -19 24 -24 11 -2 31 -9 44 -16 31 -16 21 -6
-24 25 -23 15 -40 21 -44 15z"/>
<path d="M2550 1325 c0 -5 5 -17 10 -25 5 -8 10 -10 10 -5 0 6 -5 17 -10 25
-5 8 -10 11 -10 5z"/>
<path d="M2576 1315 c4 -8 8 -15 10 -15 2 0 4 7 4 15 0 8 -4 15 -10 15 -5 0
-7 -7 -4 -15z"/>
<path d="M3720 1320 c8 -5 20 -10 25 -10 6 0 3 5 -5 10 -8 5 -19 10 -25 10 -5
0 -3 -5 5 -10z"/>
<path d="M3844 1322 c4 -3 14 -7 22 -8 9 -1 13 0 10 4 -4 3 -14 7 -22 8 -9 1
-13 0 -10 -4z"/>
<path d="M2617 1300 c-8 -11 -17 -17 -22 -12 -4 4 -2 -3 4 -16 10 -19 31 -23
31 -6 0 3 -5 2 -12 -2 -8 -5 -9 -2 -5 10 4 10 7 19 7 22 0 2 7 1 15 -2 8 -4
12 -10 9 -15 -3 -5 -1 -9 5 -9 20 0 21 19 1 25 -11 4 -18 11 -15 16 12 18 -4
9 -18 -11z"/>
<path d="M2175 1300 c-3 -5 -1 -10 4 -10 6 0 11 5 11 10 0 6 -2 10 -4 10 -3 0
-8 -4 -11 -10z"/>
<path d="M2518 1303 c7 -3 16 -2 19 1 4 3 -2 6 -13 5 -11 0 -14 -3 -6 -6z"/>
<path d="M3695 1300 c3 -5 8 -10 11 -10 2 0 4 5 4 10 0 6 -5 10 -11 10 -5 0
-7 -4 -4 -10z"/>
<path d="M3935 1300 c3 -5 8 -10 11 -10 2 0 4 5 4 10 0 6 -5 10 -11 10 -5 0
-7 -4 -4 -10z"/>
<path d="M2416 1287 c3 -10 9 -15 12 -12 3 3 0 11 -7 18 -10 9 -11 8 -5 -6z"/>
<path d="M2455 1289 c-4 -6 -5 -12 -2 -15 2 -3 7 2 10 11 7 17 1 20 -8 4z"/>
<path d="M3670 1296 c0 -2 8 -10 18 -17 15 -13 16 -12 3 4 -13 16 -21 21 -21
13z"/>
<path d="M3711 1273 c-10 -24 -9 -26 2 -11 11 14 16 15 27 5 11 -9 11 -8 0 8
-8 11 -15 21 -16 23 0 1 -6 -10 -13 -25z"/>
<path d="M2511 1267 c-13 -21 -12 -21 5 -5 10 10 16 20 13 22 -3 3 -11 -5 -18
-17z"/>
<path d="M2541 1274 c0 -11 3 -14 6 -6 3 7 2 16 -1 19 -3 4 -6 -2 -5 -13z"/>
<path d="M2676 1274 c-9 -24 -7 -31 5 -12 5 10 17 15 27 12 14 -5 15 -4 2 5
-20 15 -27 14 -34 -5z"/>
<path d="M3651 1278 c-1 -21 15 -32 25 -17 4 7 3 9 -4 5 -6 -3 -13 2 -15 11
-4 16 -5 16 -6 1z"/>
<path d="M2215 1259 c-3 -4 2 -6 10 -5 21 3 28 13 10 13 -9 0 -18 -4 -20 -8z"/>
<path d="M2720 1260 c-13 -8 -12 -10 3 -10 9 0 17 5 17 10 0 12 -1 12 -20 0z"/>
<path d="M3633 1246 c0 -14 6 -27 14 -30 9 -4 11 -2 6 7 -4 6 -8 18 -9 25 -4
25 -11 23 -11 -2z"/>
<path d="M3895 1259 c-3 -4 2 -6 10 -5 21 3 28 13 10 13 -9 0 -18 -4 -20 -8z"/>
<path d="M2690 1245 c0 -8 4 -15 10 -15 5 0 7 7 4 15 -4 8 -8 15 -10 15 -2 0
-4 -7 -4 -15z"/>
<path d="M2070 1241 c0 -6 4 -13 10 -16 6 -3 7 1 4 9 -7 18 -14 21 -14 7z"/>
<path d="M2623 1237 c-3 -7 -3 -9 2 -5 4 4 14 0 22 -10 12 -16 13 -16 6 2 -5
15 -3 17 8 11 8 -5 11 -4 6 0 -12 14 -36 14 -44 2z"/>
<path d="M3598 1243 c7 -3 16 -2 19 1 4 3 -2 6 -13 5 -11 0 -14 -3 -6 -6z"/>
<path d="M3675 1240 c-3 -5 -1 -10 4 -10 6 0 11 5 11 10 0 6 -2 10 -4 10 -3 0
-8 -4 -11 -10z"/>
<path d="M3853 1231 c0 -11 5 -18 9 -15 4 3 5 11 1 19 -7 21 -12 19 -10 -4z"/>
<path d="M2589 1223 c-13 -16 -12 -17 4 -4 9 7 17 15 17 17 0 8 -8 3 -21 -13z"/>
<path d="M3577 1229 c7 -7 15 -10 18 -7 3 3 -2 9 -12 12 -14 6 -15 5 -6 -5z"/>
<path d="M2335 1220 c3 -5 8 -10 11 -10 2 0 4 5 4 10 0 6 -5 10 -11 10 -5 0
-7 -4 -4 -10z"/>
<path d="M2439 1207 c8 -9 16 -15 19 -12 3 3 12 -1 21 -8 14 -11 14 -10 2 6
-8 9 -16 15 -19 12 -3 -3 -12 1 -21 8 -14 11 -14 10 -2 -6z"/>
<path d="M2619 1218 c-5 -18 -6 -38 -1 -34 7 8 12 36 6 36 -2 0 -4 -1 -5 -2z"/>
<path d="M2673 1205 c0 -8 4 -15 9 -15 4 0 8 4 8 9 0 6 -4 12 -8 15 -5 3 -9
-1 -9 -9z"/>
<path d="M2755 1190 c2 -19 0 -39 -5 -45 -6 -7 -2 -11 13 -12 12 -1 17 1 12 5
-6 4 -10 16 -9 27 0 11 -3 29 -7 40 -6 14 -7 10 -4 -15z"/>
<path d="M3670 1216 c0 -2 8 -10 18 -17 15 -13 16 -12 3 4 -13 16 -21 21 -21
13z"/>
<path d="M2785 1200 c-3 -5 -2 -10 4 -10 5 0 13 5 16 10 3 6 2 10 -4 10 -5 0
-13 -4 -16 -10z"/>
<path d="M2873 1182 c-12 -15 -20 -28 -18 -31 3 -2 13 7 24 20 11 13 22 21 25
18 4 -3 -5 -18 -18 -32 -14 -15 -20 -27 -15 -27 6 0 7 -4 4 -10 -4 -6 1 -7 11
-3 11 4 13 8 6 11 -8 2 -6 12 8 32 15 22 17 30 7 38 -9 8 -18 3 -34 -16z"/>
<path d="M3527 1191 c14 -17 33 -20 33 -5 0 3 -4 3 -9 0 -5 -3 -11 1 -15 9 -3
8 -10 15 -16 15 -5 0 -2 -9 7 -19z"/>
<path d="M3604 1202 c4 -3 14 -7 22 -8 9 -1 13 0 10 4 -4 3 -14 7 -22 8 -9 1
-13 0 -10 -4z"/>
<path d="M2835 1174 c-9 -15 -12 -23 -6 -20 11 7 35 46 28 46 -3 0 -12 -12
-22 -26z"/>
<path d="M3482 1191 c-11 -7 -11 -9 0 -14 9 -3 15 1 15 9 0 8 -1 14 -1 14 -1
0 -7 -4 -14 -9z"/>
<path d="M2374 1178 c-4 -7 -4 -10 1 -6 4 4 15 2 24 -5 14 -11 14 -10 2 6 -16
20 -18 21 -27 5z"/>
<path d="M2929 1179 c-1 -8 -1 -20 0 -28 2 -7 -2 -10 -8 -6 -6 3 -11 1 -11 -5
0 -7 7 -9 16 -6 9 3 18 6 21 6 3 0 -1 7 -8 16 -12 15 -11 16 11 9 14 -4 23 -6
20 -3 -35 28 -40 30 -41 17z"/>
<path d="M3510 1185 c0 -5 5 -17 10 -25 5 -8 10 -10 10 -5 0 6 -5 17 -10 25
-5 8 -10 11 -10 5z"/>
<path d="M3735 1180 c3 -5 8 -10 11 -10 2 0 4 5 4 10 0 6 -5 10 -11 10 -5 0
-7 -4 -4 -10z"/>
<path d="M2435 1160 c-3 -5 -1 -10 4 -10 6 0 11 5 11 10 0 6 -2 10 -4 10 -3 0
-8 -4 -11 -10z"/>
<path d="M2717 1152 c-15 -16 -15 -19 -2 -19 8 0 13 3 10 5 -3 3 0 11 6 19 17
20 5 16 -14 -5z"/>
<path d="M3450 1167 c0 -3 15 -10 32 -16 18 -6 28 -7 23 -2 -12 10 -55 25 -55
18z"/>
<path d="M3564 1162 c4 -3 14 -7 22 -8 9 -1 13 0 10 4 -4 3 -14 7 -22 8 -9 1
-13 0 -10 -4z"/>
<path d="M3428 1153 c6 -2 10 -9 7 -14 -4 -5 2 -6 11 -2 13 5 15 3 9 -7 -6 -9
-4 -11 5 -5 10 6 9 11 -5 22 -11 7 -24 13 -29 12 -6 0 -5 -3 2 -6z"/>
<path d="M2828 1133 c7 -3 16 -2 19 1 4 3 -2 6 -13 5 -11 0 -14 -3 -6 -6z"/>
<path d="M3410 1131 c0 -5 11 -16 25 -25 14 -9 25 -15 25 -13 0 2 -11 13 -25
25 -14 12 -25 18 -25 13z"/>
<path d="M2930 1120 c-6 -4 10 -8 37 -9 73 -2 93 -5 93 -13 0 -14 -22 -20 -33
-9 -6 6 -18 11 -26 11 -9 0 -3 -7 12 -15 24 -13 32 -13 48 -1 16 11 17 15 6
25 -8 6 -17 8 -20 5 -3 -3 -12 -2 -19 2 -17 11 -82 14 -98 4z"/>
<path d="M3376 1117 c3 -10 9 -15 12 -12 3 3 0 11 -7 18 -10 9 -11 8 -5 -6z"/>
<path d="M3575 1120 c3 -5 8 -10 11 -10 2 0 4 5 4 10 0 6 -5 10 -11 10 -5 0
-7 -4 -4 -10z"/>
<path d="M3675 1110 c-4 -6 -11 -7 -17 -4 -7 4 -8 2 -4 -5 6 -9 11 -9 22 0 14
11 18 19 10 19 -3 0 -8 -5 -11 -10z"/>
<path d="M2470 1100 c0 -5 5 -10 11 -10 5 0 7 5 4 10 -3 6 -8 10 -11 10 -2 0
-4 -4 -4 -10z"/>
<path d="M2714 1096 c1 -8 5 -18 8 -22 4 -3 5 1 4 10 -1 8 -5 18 -8 22 -4 3
-5 -1 -4 -10z"/>
<path d="M2747 1099 c7 -9 10 -19 6 -22 -3 -4 -1 -7 5 -7 17 0 15 16 -5 31
-16 12 -17 12 -6 -2z"/>
<path d="M2828 1103 c10 -4 10 -8 0 -21 -9 -12 -6 -11 10 2 12 11 22 20 22 20
0 1 -10 2 -22 3 -13 0 -17 -1 -10 -4z"/>
<path d="M3357 1103 c-4 -3 -7 -11 -7 -17 0 -6 5 -5 12 2 6 6 9 14 7 17 -3 3
-9 2 -12 -2z"/>
<path d="M2590 1096 c0 -2 8 -10 18 -17 15 -13 16 -12 3 4 -13 16 -21 21 -21
13z"/>
<path d="M2931 1091 c-8 -5 -21 -7 -30 -4 -13 4 -14 3 -2 -5 14 -10 51 0 51
13 0 7 -3 6 -19 -4z"/>
<path d="M2972 1080 c0 -14 2 -19 5 -12 2 6 2 18 0 25 -3 6 -5 1 -5 -13z"/>
<path d="M3310 1085 c0 -8 4 -15 10 -15 5 0 7 7 4 15 -4 8 -8 15 -10 15 -2 0
-4 -7 -4 -15z"/>
<path d="M3100 1080 c0 -5 -6 -7 -13 -4 -8 3 -20 -2 -27 -11 -8 -10 -9 -15 -1
-15 6 0 11 5 11 11 0 6 9 8 20 4 14 -5 20 -2 20 9 0 9 -2 16 -5 16 -3 0 -5 -4
-5 -10z"/>
<path d="M3375 1081 c-3 -5 -2 -12 3 -15 5 -3 9 1 9 9 0 17 -3 19 -12 6z"/>
<path d="M3407 1079 c7 -7 15 -10 18 -7 3 3 -2 9 -12 12 -14 6 -15 5 -6 -5z"/>
<path d="M3516 1073 c-6 -14 -5 -15 5 -6 7 7 10 15 7 18 -3 3 -9 -2 -12 -12z"/>
<path d="M2516 1067 c3 -10 9 -15 12 -12 3 3 0 11 -7 18 -10 9 -11 8 -5 -6z"/>
<path d="M2650 1059 c0 -5 5 -7 10 -4 6 3 10 8 10 11 0 2 -4 4 -10 4 -5 0 -10
-5 -10 -11z"/>
<path d="M2870 1056 c7 -7 13 -7 20 0 6 6 3 10 -10 10 -13 0 -16 -4 -10 -10z"/>
<path d="M2990 1061 c0 -6 7 -8 15 -5 10 4 13 0 10 -14 -3 -16 1 -18 23 -14
26 6 27 6 4 11 -13 3 -23 11 -22 16 1 6 -6 11 -14 13 -9 2 -16 -1 -16 -7z"/>
<path d="M3254 1058 c-3 -5 -3 -12 0 -15 3 -4 6 -2 6 3 0 5 9 10 20 10 15 0
19 -5 14 -21 -4 -16 -3 -17 5 -5 9 13 15 8 13 -11 -1 -3 5 -6 13 -6 10 0 9 7
-6 26 -20 25 -55 35 -65 19z"/>
<path d="M3335 1060 c-7 -11 22 -26 32 -16 4 3 -1 6 -11 6 -9 0 -14 5 -11 10
3 6 4 10 1 10 -3 0 -8 -5 -11 -10z"/>
<path d="M2815 1049 c-4 -6 -5 -12 -2 -15 2 -3 7 2 10 11 7 17 1 20 -8 4z"/>
<path d="M2745 1040 c-3 -6 1 -7 9 -4 18 7 21 14 7 14 -6 0 -13 -4 -16 -10z"/>
<path d="M3076 1034 c-4 -9 -4 -19 -1 -22 3 -3 5 0 5 7 0 10 7 9 26 -4 24 -16
27 -16 45 1 23 20 17 32 -16 32 -13 0 -22 -5 -19 -10 3 -5 15 -6 27 -2 21 6
21 5 5 -11 -14 -16 -18 -16 -37 -3 -11 8 -18 18 -14 21 3 4 2 7 -4 7 -6 0 -14
-7 -17 -16z"/>
<path d="M3221 1037 c-8 -10 -4 -18 17 -34 25 -19 28 -19 28 -3 0 11 -6 16
-15 12 -9 -3 -12 -1 -7 6 5 8 1 10 -11 5 -16 -6 -16 -5 -4 10 7 9 11 17 8 17
-2 0 -10 -6 -16 -13z"/>
<path d="M3506 1038 c3 -5 10 -6 15 -3 13 9 11 12 -6 12 -8 0 -12 -4 -9 -9z"/>
<path d="M3174 1014 c-13 -19 -14 -28 -5 -37 10 -9 11 -8 5 7 -5 13 -4 17 4
12 8 -5 10 -1 6 11 -5 16 -4 16 10 -1 9 -11 16 -15 16 -9 0 7 -5 15 -10 18 -6
4 -8 11 -5 16 14 22 -6 7 -21 -17z"/>
<path d="M2919 1028 c-5 -18 -6 -38 -1 -34 7 8 12 36 6 36 -2 0 -4 -1 -5 -2z"/>
<path d="M2946 1018 c3 -5 10 -6 15 -3 13 9 11 12 -6 12 -8 0 -12 -4 -9 -9z"/>
<path d="M2969 1003 c-13 -16 -12 -17 4 -4 9 7 17 15 17 17 0 8 -8 3 -21 -13z"/>
<path d="M3010 1001 c0 -6 4 -13 10 -16 6 -3 7 1 4 9 -7 18 -14 21 -14 7z"/>
<path d="M3293 995 c0 -8 4 -12 9 -9 5 3 6 10 3 15 -9 13 -12 11 -12 -6z"/>
<path d="M3067 987 c-3 -7 3 -13 14 -13 13 0 15 3 7 13 -6 7 -12 13 -13 13 -2
0 -5 -6 -8 -13z"/>
<path d="M2735 981 c-3 -5 -2 -12 3 -15 5 -3 9 1 9 9 0 17 -3 19 -12 6z"/>
<path d="M3233 974 c16 -20 52 -30 41 -12 -4 5 -9 7 -12 4 -3 -3 -15 2 -26 11
-21 18 -21 18 -3 -3z"/>
<path d="M2880 960 c-9 -6 -10 -10 -3 -10 6 0 15 5 18 10 8 12 4 12 -15 0z"/>
<path d="M2996 953 c-6 -14 -5 -15 5 -6 7 7 10 15 7 18 -3 3 -9 -2 -12 -12z"/>
<path d="M2865 920 c-3 -6 1 -7 9 -4 18 7 21 14 7 14 -6 0 -13 -4 -16 -10z"/>
<path d="M3174 915 c3 -23 12 -26 13 -5 1 11 -2 20 -7 20 -4 0 -7 -7 -6 -15z"/>
<path d="M3310 921 c0 -6 4 -13 10 -16 6 -3 7 1 4 9 -7 18 -14 21 -14 7z"/>
<path d="M3017 875 c-4 -8 -3 -16 1 -19 4 -3 9 4 9 15 2 23 -3 25 -10 4z"/>
<path d="M3173 865 c0 -8 4 -12 9 -9 5 3 6 10 3 15 -9 13 -12 11 -12 -6z"/>
<path d="M2976 862 c-3 -5 1 -9 9 -9 8 0 12 4 9 9 -3 4 -7 8 -9 8 -2 0 -6 -4
-9 -8z"/>
</g>
</svg>
