<?xml version="1.0" standalone="no"?>
<!DOCTYPE svg PUBLIC "-//W3C//DTD SVG 20010904//EN"
 "http://www.w3.org/TR/2001/REC-SVG-20010904/DTD/svg10.dtd">
<svg version="1.0" xmlns="http://www.w3.org/2000/svg"
 width="512.000000pt" height="512.000000pt" viewBox="0 0 512.000000 512.000000"
 preserveAspectRatio="xMidYMid meet">
<metadata>
Created by potrace 1.14, written by Peter Selinger 2001-2017
</metadata>
<g transform="translate(0.000000,512.000000) scale(0.100000,-0.100000)"
fill="#000000" stroke="none">
<path d="M2507 4904 c-2 -2 -65 -8 -192 -19 -173 -16 -420 -83 -600 -163 -134
-59 -234 -121 -369 -225 -106 -82 -266 -270 -345 -405 -121 -207 -209 -474
-236 -712 -3 -30 -13 -100 -21 -155 -8 -55 -17 -118 -20 -140 -3 -22 -9 -62
-14 -90 -5 -27 -12 -75 -16 -105 -3 -30 -8 -62 -9 -70 -2 -8 -8 -51 -15 -95
-6 -44 -13 -91 -15 -105 -3 -14 -7 -43 -10 -65 -4 -22 -8 -51 -10 -65 -2 -14
-7 -47 -11 -75 -3 -27 -7 -57 -9 -65 -1 -8 -6 -35 -10 -60 -3 -25 -9 -58 -11
-75 -3 -16 -7 -46 -10 -65 -2 -19 -9 -60 -14 -90 -9 -53 -12 -75 -26 -185 l-6
-50 278 0 279 0 0 -560 0 -560 563 -3 562 -2 -1 -233 c-1 -127 -1 -237 0 -243
1 -7 214 -10 719 -9 394 1 722 2 727 3 7 1 10 216 9 622 l-1 620 33 25 c18 14
35 25 39 25 3 0 49 32 101 71 108 81 272 240 336 326 24 32 46 60 49 63 19 16
117 181 164 275 171 346 232 784 160 1145 -3 14 -8 39 -11 55 -12 72 -68 252
-103 330 -128 290 -310 532 -536 714 -38 31 -72 58 -75 61 -8 9 -110 75 -160
104 -245 141 -424 204 -658 232 -26 3 -60 8 -77 11 -27 5 -423 12 -428 7z"/>
</g>
</svg>
